<svg width="350" height="35" viewBox="0 0 350 35" fill="none" xmlns="http://www.w3.org/2000/svg">
<path d="M6.408 26.44C5.4 26.44 4.472 26.24 3.624 25.84C2.776 25.44 2.096 24.824 1.584 23.992C1.088 23.16 0.84 22.104 0.84 20.824C0.84 19.624 1.08 18.552 1.56 17.608C2.056 16.664 2.76 15.92 3.672 15.376C4.6 14.832 5.704 14.56 6.984 14.56C7.848 14.56 8.552 14.68 9.096 14.92C9.656 15.16 10.064 15.424 10.32 15.712C10.592 15.984 10.728 16.184 10.728 16.312C10.728 16.472 10.64 16.656 10.464 16.864C10.304 17.056 10.096 17.232 9.84 17.392C9.584 17.552 9.32 17.664 9.048 17.728C8.824 17.024 8.464 16.552 7.968 16.312C7.472 16.072 6.952 15.952 6.408 15.952C5.72 15.952 5.136 16.16 4.656 16.576C4.192 16.976 3.84 17.504 3.6 18.16C3.376 18.816 3.264 19.504 3.264 20.224C3.264 20.976 3.392 21.704 3.648 22.408C3.92 23.112 4.32 23.688 4.848 24.136C5.376 24.584 6.032 24.808 6.816 24.808C7.488 24.808 8.152 24.672 8.808 24.4C9.464 24.112 9.992 23.76 10.392 23.344C10.552 23.504 10.696 23.688 10.824 23.896C10.968 24.104 11.04 24.288 11.04 24.448C11.04 24.688 10.88 24.92 10.56 25.144C9.92 25.592 9.232 25.92 8.496 26.128C7.76 26.336 7.064 26.44 6.408 26.44ZM12.6084 26.08C12.4484 26.08 12.3684 26 12.3684 25.84C12.3684 25.728 12.3764 25.584 12.3924 25.408C12.4244 25.232 12.4724 25.096 12.5364 25C13.0484 24.968 13.4084 24.84 13.6164 24.616C13.8404 24.392 13.9684 24.08 14.0004 23.68C14.0324 23.408 14.0484 22.976 14.0484 22.384C14.0644 21.776 14.0724 21.16 14.0724 20.536C14.0724 19.912 14.0644 19.304 14.0484 18.712C14.0484 18.12 14.0404 17.648 14.0244 17.296C13.9924 16.72 13.7524 16.408 13.3044 16.36L12.4884 16.288C12.3284 16.272 12.2484 16.168 12.2484 15.976C12.2484 15.752 12.3284 15.496 12.4884 15.208C12.7604 15.144 13.0964 15.088 13.4964 15.04C13.8964 14.976 14.2884 14.92 14.6724 14.872C15.0564 14.824 15.3444 14.8 15.5364 14.8C15.8564 14.8 16.0724 14.88 16.1844 15.04C16.3124 15.2 16.3764 15.48 16.3764 15.88C16.3764 16.088 16.3764 16.32 16.3764 16.576C16.7284 15.952 17.1604 15.464 17.6724 15.112C18.1844 14.744 18.7524 14.56 19.3764 14.56C19.7444 14.56 20.0404 14.6 20.2644 14.68C20.4884 14.76 20.6804 14.848 20.8404 14.944C20.9524 15.008 21.0084 15.104 21.0084 15.232C21.0084 15.536 20.9124 15.904 20.7204 16.336C20.5444 16.752 20.3444 17.04 20.1204 17.2C19.3844 16.784 18.7444 16.576 18.2004 16.576C17.7204 16.576 17.3444 16.736 17.0724 17.056C16.8164 17.36 16.6324 17.784 16.5204 18.328C16.4084 18.856 16.3444 19.456 16.3284 20.128C16.3284 20.336 16.3284 20.552 16.3284 20.776C16.3284 20.984 16.3284 21.192 16.3284 21.4C16.3284 21.88 16.3284 22.368 16.3284 22.864C16.3444 23.344 16.3604 23.784 16.3764 24.184C16.3924 24.392 16.4404 24.544 16.5204 24.64C16.6004 24.72 16.6884 24.768 16.7844 24.784C17.0404 24.8 17.3124 24.816 17.6004 24.832C17.9044 24.848 18.1604 24.856 18.3684 24.856C18.3684 25.016 18.3604 25.2 18.3444 25.408C18.3284 25.616 18.3044 25.76 18.2724 25.84C18.2244 26 18.1124 26.08 17.9364 26.08H12.6084ZM24.1708 20.68C24.2348 21.912 24.5868 22.904 25.2268 23.656C25.8668 24.392 26.7868 24.76 27.9868 24.76C28.5948 24.76 29.1948 24.64 29.7868 24.4C30.3788 24.16 30.8748 23.832 31.2748 23.416C31.6108 23.784 31.7788 24.152 31.7788 24.52C31.7628 24.76 31.5948 24.992 31.2748 25.216C30.6828 25.648 30.0188 25.96 29.2828 26.152C28.5468 26.344 27.8508 26.44 27.1948 26.44C26.2188 26.44 25.3148 26.232 24.4828 25.816C23.6508 25.384 22.9788 24.752 22.4668 23.92C21.9708 23.088 21.7228 22.048 21.7228 20.8C21.7228 19.568 21.9468 18.488 22.3948 17.56C22.8588 16.616 23.5068 15.88 24.3388 15.352C25.1868 14.824 26.1868 14.56 27.3388 14.56C28.2828 14.56 29.0908 14.752 29.7628 15.136C30.4508 15.52 30.9788 16.056 31.3468 16.744C31.7308 17.416 31.9228 18.184 31.9228 19.048C31.9228 19.496 31.8268 19.832 31.6348 20.056C31.4588 20.264 31.1468 20.384 30.6988 20.416L24.1708 20.68ZM27.1468 15.952C26.3628 15.952 25.7148 16.256 25.2028 16.864C24.6908 17.456 24.3708 18.272 24.2428 19.312L29.5948 19C29.6428 18.024 29.4428 17.272 28.9948 16.744C28.5628 16.216 27.9468 15.952 27.1468 15.952ZM42.0932 26.32C41.9012 26.272 41.7012 26.16 41.4932 25.984C41.3012 25.792 41.1492 25.536 41.0372 25.216C40.6372 25.568 40.1492 25.864 39.5732 26.104C39.0132 26.328 38.3332 26.44 37.5332 26.44C36.4772 26.44 35.6132 26.176 34.9412 25.648C34.2852 25.104 33.9572 24.384 33.9572 23.488C33.9572 22.56 34.2212 21.824 34.7492 21.28C35.2932 20.736 36.0772 20.312 37.1012 20.008C38.1412 19.688 39.3972 19.424 40.8692 19.216V18.52C40.8852 17.48 40.7092 16.768 40.3412 16.384C39.9892 16 39.4292 15.808 38.6612 15.808C38.1332 15.808 37.7252 15.92 37.4372 16.144C37.1652 16.368 36.9732 16.664 36.8612 17.032C36.7652 17.384 36.7012 17.768 36.6692 18.184C36.3332 18.184 35.9812 18.152 35.6132 18.088C35.2452 18.008 34.9412 17.904 34.7012 17.776C34.4612 17.648 34.3652 17.488 34.4132 17.296C34.5412 16.8 34.8452 16.344 35.3252 15.928C35.8052 15.512 36.4132 15.184 37.1492 14.944C37.8852 14.688 38.6932 14.56 39.5732 14.56C40.8052 14.56 41.7332 14.848 42.3572 15.424C42.9972 16 43.2852 16.896 43.2212 18.112C43.2052 18.384 43.1892 18.84 43.1732 19.48C43.1732 20.104 43.1732 20.744 43.1732 21.4C43.1732 21.944 43.1732 22.464 43.1732 22.96C43.1892 23.44 43.2052 23.808 43.2212 24.064C43.2532 24.352 43.3252 24.544 43.4372 24.64C43.5492 24.736 43.6932 24.776 43.8692 24.76L44.6372 24.712C44.7972 24.712 44.8772 24.792 44.8772 24.952C44.8772 25.048 44.8612 25.184 44.8292 25.36C44.7972 25.536 44.7492 25.688 44.6852 25.816C44.3812 25.944 43.9652 26.064 43.4372 26.176C42.9092 26.272 42.4612 26.32 42.0932 26.32ZM40.8212 23.608L40.8452 20.392C40.0452 20.504 39.3092 20.664 38.6372 20.872C37.9812 21.08 37.4532 21.376 37.0532 21.76C36.6692 22.128 36.4772 22.616 36.4772 23.224C36.4772 23.656 36.6292 24.04 36.9332 24.376C37.2372 24.712 37.6852 24.88 38.2772 24.88C38.7572 24.88 39.2452 24.784 39.7412 24.592C40.2372 24.384 40.5972 24.056 40.8212 23.608ZM50.7812 26.44C49.7092 26.44 48.8532 26.176 48.2132 25.648C47.5892 25.12 47.2852 24.216 47.3012 22.936L47.3492 16.36H45.7892C45.5812 16.36 45.4772 16.256 45.4772 16.048C45.4772 15.872 45.5172 15.664 45.5972 15.424C45.6772 15.184 45.7492 15.016 45.8132 14.92H47.3492V13C47.3492 12.712 47.4692 12.512 47.7092 12.4C47.9652 12.272 48.3092 12.16 48.7412 12.064C49.1892 11.968 49.5892 11.92 49.9412 11.92C49.8932 12.176 49.8532 12.576 49.8212 13.12C49.7892 13.648 49.7572 14.248 49.7252 14.92H51.3092C52.2532 14.92 52.9812 14.88 53.4932 14.8C53.4132 15.328 53.3012 15.76 53.1572 16.096C53.0772 16.272 52.8932 16.36 52.6052 16.36H49.6772C49.6452 17.16 49.6212 17.96 49.6052 18.76C49.6052 19.56 49.6052 20.28 49.6052 20.92C49.6052 21.256 49.6052 21.568 49.6052 21.856C49.6052 22.128 49.6132 22.368 49.6292 22.576C49.6772 23.312 49.8692 23.84 50.2052 24.16C50.5412 24.48 50.9332 24.64 51.3812 24.64C51.7172 24.64 52.0612 24.592 52.4132 24.496C52.7812 24.384 53.1892 24.224 53.6372 24.016C53.6852 24.16 53.7332 24.336 53.7812 24.544C53.8452 24.752 53.8772 24.936 53.8772 25.096C53.8772 25.272 53.7972 25.416 53.6372 25.528C53.1412 25.832 52.6612 26.064 52.1972 26.224C51.7492 26.368 51.2772 26.44 50.7812 26.44ZM57.288 20.68C57.352 21.912 57.704 22.904 58.344 23.656C58.984 24.392 59.904 24.76 61.104 24.76C61.712 24.76 62.312 24.64 62.904 24.4C63.496 24.16 63.992 23.832 64.392 23.416C64.728 23.784 64.896 24.152 64.896 24.52C64.88 24.76 64.712 24.992 64.392 25.216C63.8 25.648 63.136 25.96 62.4 26.152C61.664 26.344 60.968 26.44 60.312 26.44C59.336 26.44 58.432 26.232 57.6 25.816C56.768 25.384 56.096 24.752 55.584 23.92C55.088 23.088 54.84 22.048 54.84 20.8C54.84 19.568 55.064 18.488 55.512 17.56C55.976 16.616 56.624 15.88 57.456 15.352C58.304 14.824 59.304 14.56 60.456 14.56C61.4 14.56 62.208 14.752 62.88 15.136C63.568 15.52 64.096 16.056 64.464 16.744C64.848 17.416 65.04 18.184 65.04 19.048C65.04 19.496 64.944 19.832 64.752 20.056C64.576 20.264 64.264 20.384 63.816 20.416L57.288 20.68ZM60.264 15.952C59.48 15.952 58.832 16.256 58.32 16.864C57.808 17.456 57.488 18.272 57.36 19.312L62.712 19C62.76 18.024 62.56 17.272 62.112 16.744C61.68 16.216 61.064 15.952 60.264 15.952ZM85.3817 26.44L83.0057 19.744L80.3177 26.08C80.2057 26.224 79.9737 26.328 79.6217 26.392C79.2857 26.44 78.9577 26.456 78.6377 26.44L75.6617 18.208C75.4537 17.632 75.2697 17.2 75.1097 16.912C74.9657 16.608 74.7737 16.408 74.5337 16.312C74.3097 16.2 73.9817 16.136 73.5497 16.12C73.5497 15.944 73.5657 15.76 73.5977 15.568C73.6297 15.376 73.6537 15.24 73.6697 15.16C73.7177 15 73.8137 14.92 73.9577 14.92H78.5897C78.7497 14.92 78.8297 15 78.8297 15.16C78.8297 15.224 78.8217 15.336 78.8057 15.496C78.7897 15.656 78.7497 15.824 78.6857 16C78.3977 16 78.1817 16.04 78.0377 16.12C77.8937 16.2 77.8217 16.36 77.8217 16.6C77.8217 16.744 77.8457 16.928 77.8937 17.152C77.9577 17.36 78.0377 17.624 78.1337 17.944L79.9577 23.56L82.3337 17.92C82.1577 17.424 81.9977 17.056 81.8537 16.816C81.7097 16.56 81.5337 16.384 81.3257 16.288C81.1177 16.192 80.8297 16.136 80.4617 16.12C80.4617 15.944 80.4777 15.76 80.5097 15.568C80.5417 15.376 80.5657 15.24 80.5817 15.16C80.6297 15 80.7257 14.92 80.8697 14.92H85.2617C85.4217 14.92 85.5017 15 85.5017 15.16C85.5017 15.224 85.4937 15.336 85.4777 15.496C85.4617 15.656 85.4217 15.824 85.3577 16C85.0697 16 84.8617 16.04 84.7337 16.12C84.6057 16.184 84.5417 16.328 84.5417 16.552C84.5417 16.856 84.6457 17.32 84.8537 17.944L86.6057 23.32L88.4537 17.992C88.5497 17.704 88.6217 17.456 88.6697 17.248C88.7337 17.04 88.7657 16.864 88.7657 16.72C88.7657 16.448 88.6777 16.264 88.5017 16.168C88.3257 16.072 88.0537 16.016 87.6857 16C87.7177 15.632 87.7577 15.352 87.8057 15.16C87.8537 15 87.9657 14.92 88.1417 14.92H91.7897C91.9497 14.92 92.0297 15 92.0297 15.16C92.0297 15.272 92.0137 15.416 91.9817 15.592C91.9657 15.768 91.9257 15.904 91.8617 16C91.5097 16.032 91.2217 16.104 90.9977 16.216C90.7737 16.312 90.5817 16.496 90.4217 16.768C90.2777 17.024 90.1097 17.416 89.9177 17.944L87.0377 26.08C86.9257 26.224 86.7177 26.328 86.4137 26.392C86.1097 26.44 85.7657 26.456 85.3817 26.44ZM93.1163 26.08C92.9563 26.08 92.8763 25.968 92.8763 25.744C92.8763 25.472 92.9243 25.224 93.0203 25C93.5963 24.968 93.9963 24.84 94.2203 24.616C94.4603 24.392 94.5963 24.08 94.6283 23.68C94.6603 23.408 94.6763 22.992 94.6763 22.432C94.6923 21.872 94.7003 21.28 94.7003 20.656C94.7003 20.032 94.6923 19.424 94.6763 18.832C94.6763 18.224 94.6683 17.744 94.6523 17.392C94.6203 16.816 94.3803 16.504 93.9323 16.456L93.1163 16.384C92.9563 16.384 92.8763 16.28 92.8763 16.072C92.8763 15.864 92.9563 15.616 93.1163 15.328C93.3563 15.264 93.6923 15.2 94.1243 15.136C94.5723 15.072 95.0043 15.016 95.4203 14.968C95.8523 14.92 96.1643 14.896 96.3563 14.896C96.8843 14.896 97.1243 15.216 97.0763 15.856C97.0443 16.32 97.0203 16.872 97.0043 17.512C96.9883 18.136 96.9723 18.8 96.9563 19.504C96.9563 20.192 96.9563 20.864 96.9563 21.52C96.9563 22 96.9563 22.464 96.9563 22.912C96.9723 23.36 96.9883 23.784 97.0043 24.184C97.0203 24.392 97.0683 24.544 97.1483 24.64C97.2283 24.72 97.3163 24.768 97.4123 24.784C97.5563 24.8 97.7403 24.816 97.9643 24.832C98.2043 24.848 98.4283 24.856 98.6363 24.856C98.6363 25.288 98.6043 25.616 98.5403 25.84C98.4923 26 98.3803 26.08 98.2043 26.08H93.1163ZM95.6603 12.76C95.1643 12.76 94.7563 12.608 94.4363 12.304C94.1163 11.984 93.9563 11.6 93.9563 11.152C93.9563 10.672 94.1163 10.28 94.4363 9.976C94.7563 9.672 95.1643 9.52 95.6603 9.52C96.1563 9.52 96.5563 9.672 96.8603 9.976C97.1643 10.28 97.3163 10.672 97.3163 11.152C97.3163 11.6 97.1643 11.984 96.8603 12.304C96.5563 12.608 96.1563 12.76 95.6603 12.76ZM104.664 26.44C103.592 26.44 102.736 26.176 102.096 25.648C101.472 25.12 101.168 24.216 101.184 22.936L101.232 16.36H99.672C99.464 16.36 99.36 16.256 99.36 16.048C99.36 15.872 99.4 15.664 99.48 15.424C99.56 15.184 99.632 15.016 99.696 14.92H101.232V13C101.232 12.712 101.352 12.512 101.592 12.4C101.848 12.272 102.192 12.16 102.624 12.064C103.072 11.968 103.472 11.92 103.824 11.92C103.776 12.176 103.736 12.576 103.704 13.12C103.672 13.648 103.64 14.248 103.608 14.92H105.192C106.136 14.92 106.864 14.88 107.376 14.8C107.296 15.328 107.184 15.76 107.04 16.096C106.96 16.272 106.776 16.36 106.488 16.36H103.56C103.528 17.16 103.504 17.96 103.488 18.76C103.488 19.56 103.488 20.28 103.488 20.92C103.488 21.256 103.488 21.568 103.488 21.856C103.488 22.128 103.496 22.368 103.512 22.576C103.56 23.312 103.752 23.84 104.088 24.16C104.424 24.48 104.816 24.64 105.264 24.64C105.6 24.64 105.944 24.592 106.296 24.496C106.664 24.384 107.072 24.224 107.52 24.016C107.568 24.16 107.616 24.336 107.664 24.544C107.728 24.752 107.76 24.936 107.76 25.096C107.76 25.272 107.68 25.416 107.52 25.528C107.024 25.832 106.544 26.064 106.08 26.224C105.632 26.368 105.16 26.44 104.664 26.44ZM109.072 26.08C108.912 26.08 108.832 26 108.832 25.84C108.832 25.776 108.84 25.648 108.856 25.456C108.872 25.248 108.912 25.096 108.976 25C109.488 24.968 109.848 24.84 110.056 24.616C110.28 24.392 110.408 24.08 110.44 23.68C110.472 23.376 110.496 22.84 110.512 22.072C110.528 21.304 110.544 20.424 110.56 19.432C110.592 18.424 110.608 17.4 110.608 16.36C110.624 15.32 110.632 14.376 110.632 13.528C110.632 12.92 110.624 12.392 110.608 11.944C110.608 11.48 110.6 11.152 110.584 10.96C110.568 10.688 110.504 10.472 110.392 10.312C110.296 10.152 110.12 10.064 109.864 10.048L109.072 10C108.912 10 108.832 9.896 108.832 9.688C108.832 9.464 108.912 9.208 109.072 8.92C109.312 8.856 109.64 8.8 110.056 8.752C110.488 8.704 110.904 8.664 111.304 8.632C111.72 8.584 112.024 8.56 112.216 8.56C112.536 8.56 112.752 8.64 112.864 8.8C112.992 8.96 113.04 9.24 113.008 9.64C112.992 9.96 112.976 10.456 112.96 11.128C112.944 11.8 112.928 12.592 112.912 13.504C112.896 14.4 112.88 15.336 112.864 16.312C113.392 15.784 113.992 15.36 114.664 15.04C115.352 14.72 116.04 14.56 116.728 14.56C117.72 14.56 118.528 14.84 119.152 15.4C119.792 15.96 120.112 16.856 120.112 18.088V20.992C120.112 21.76 120.112 22.416 120.112 22.96C120.128 23.488 120.152 23.888 120.184 24.16C120.232 24.512 120.376 24.72 120.616 24.784C120.904 24.848 121.296 24.88 121.792 24.88C121.792 25.296 121.76 25.616 121.696 25.84C121.648 26 121.56 26.08 121.432 26.08H116.392C116.232 26.08 116.152 26 116.152 25.84C116.152 25.776 116.16 25.664 116.176 25.504C116.192 25.328 116.232 25.16 116.296 25C116.808 24.968 117.168 24.84 117.376 24.616C117.584 24.392 117.712 24.08 117.76 23.68C117.84 23.008 117.88 22.112 117.88 20.992C117.88 20.672 117.872 20.36 117.856 20.056C117.856 19.752 117.848 19.464 117.832 19.192C117.784 18.248 117.6 17.552 117.28 17.104C116.976 16.656 116.456 16.432 115.72 16.432C115.208 16.432 114.696 16.536 114.184 16.744C113.672 16.936 113.224 17.232 112.84 17.632C112.84 18.464 112.832 19.272 112.816 20.056C112.816 20.824 112.816 21.528 112.816 22.168V23.92C112.816 24.224 112.856 24.44 112.936 24.568C113.032 24.696 113.192 24.776 113.416 24.808C113.672 24.84 113.984 24.856 114.352 24.856C114.352 25.288 114.32 25.616 114.256 25.84C114.208 26 114.12 26.08 113.992 26.08H109.072Z" fill="black"/>
<path d="M134.84 26.08C134.68 26.08 134.6 26 134.6 25.84C134.6 25.776 134.616 25.648 134.648 25.456C134.696 25.264 134.752 25.112 134.816 25C135.408 24.968 135.816 24.808 136.04 24.52C136.28 24.216 136.4 23.736 136.4 23.08V12.16C136.4 11.616 136.368 11.232 136.304 11.008C136.24 10.784 136.096 10.648 135.872 10.6C135.664 10.536 135.328 10.504 134.864 10.504C134.864 10.296 134.88 10.104 134.912 9.928C134.944 9.736 134.968 9.6 134.984 9.52C135.032 9.36 135.12 9.28 135.248 9.28H141.056C142.704 9.296 144.008 9.656 144.968 10.36C145.928 11.048 146.408 11.952 146.408 13.072C146.408 13.92 146.104 14.688 145.496 15.376C144.888 16.064 144.096 16.552 143.12 16.84C143.856 16.968 144.56 17.216 145.232 17.584C145.92 17.952 146.48 18.448 146.912 19.072C147.344 19.68 147.56 20.424 147.56 21.304C147.56 22.84 146.952 24.024 145.736 24.856C144.52 25.672 142.816 26.08 140.624 26.08H134.84ZM139.28 24.808C139.456 24.824 139.632 24.84 139.808 24.856C140 24.856 140.176 24.856 140.336 24.856C141.76 24.856 142.92 24.576 143.816 24.016C144.712 23.456 145.16 22.544 145.16 21.28C145.16 20.048 144.728 19.136 143.864 18.544C143 17.936 141.592 17.632 139.64 17.632C139.432 17.632 139.256 17.632 139.112 17.632C138.968 17.632 138.84 17.64 138.728 17.656V23.08C138.728 23.784 138.76 24.24 138.824 24.448C138.888 24.656 139.04 24.776 139.28 24.808ZM138.728 16.384C138.84 16.4 138.96 16.408 139.088 16.408C139.232 16.408 139.4 16.408 139.592 16.408C140.888 16.408 141.96 16.16 142.808 15.664C143.656 15.152 144.08 14.36 144.08 13.288C144.08 12.312 143.76 11.608 143.12 11.176C142.496 10.728 141.664 10.504 140.624 10.504C140.416 10.504 140.208 10.512 140 10.528C139.792 10.544 139.576 10.576 139.352 10.624C139.096 10.688 138.928 10.848 138.848 11.104C138.768 11.36 138.728 11.712 138.728 12.16V16.384ZM151.679 20.68C151.743 21.912 152.095 22.904 152.735 23.656C153.375 24.392 154.295 24.76 155.495 24.76C156.103 24.76 156.703 24.64 157.295 24.4C157.887 24.16 158.383 23.832 158.783 23.416C159.119 23.784 159.287 24.152 159.287 24.52C159.271 24.76 159.103 24.992 158.783 25.216C158.191 25.648 157.527 25.96 156.791 26.152C156.055 26.344 155.359 26.44 154.703 26.44C153.727 26.44 152.823 26.232 151.991 25.816C151.159 25.384 150.487 24.752 149.975 23.92C149.479 23.088 149.231 22.048 149.231 20.8C149.231 19.568 149.455 18.488 149.903 17.56C150.367 16.616 151.015 15.88 151.847 15.352C152.695 14.824 153.695 14.56 154.847 14.56C155.791 14.56 156.599 14.752 157.271 15.136C157.959 15.52 158.487 16.056 158.855 16.744C159.239 17.416 159.431 18.184 159.431 19.048C159.431 19.496 159.335 19.832 159.143 20.056C158.967 20.264 158.655 20.384 158.207 20.416L151.679 20.68ZM154.655 15.952C153.871 15.952 153.223 16.256 152.711 16.864C152.199 17.456 151.879 18.272 151.751 19.312L157.103 19C157.151 18.024 156.951 17.272 156.503 16.744C156.071 16.216 155.455 15.952 154.655 15.952ZM161.111 26.08C160.951 26.08 160.871 26 160.871 25.84C160.871 25.776 160.879 25.648 160.895 25.456C160.911 25.248 160.951 25.096 161.015 25C161.527 24.968 161.887 24.84 162.095 24.616C162.319 24.392 162.447 24.08 162.479 23.68C162.511 23.376 162.535 22.84 162.551 22.072C162.567 21.304 162.583 20.424 162.599 19.432C162.631 18.424 162.647 17.4 162.647 16.36C162.663 15.32 162.671 14.376 162.671 13.528C162.671 12.92 162.663 12.392 162.647 11.944C162.647 11.48 162.639 11.152 162.623 10.96C162.607 10.688 162.543 10.472 162.431 10.312C162.335 10.152 162.159 10.064 161.903 10.048L161.111 10C160.951 10 160.871 9.896 160.871 9.688C160.871 9.464 160.951 9.208 161.111 8.92C161.351 8.856 161.679 8.8 162.095 8.752C162.527 8.704 162.943 8.664 163.343 8.632C163.759 8.584 164.063 8.56 164.255 8.56C164.575 8.56 164.791 8.64 164.903 8.8C165.031 8.96 165.079 9.24 165.047 9.64C165.031 9.96 165.015 10.456 164.999 11.128C164.983 11.8 164.967 12.592 164.951 13.504C164.935 14.4 164.919 15.336 164.903 16.312C165.431 15.784 166.031 15.36 166.703 15.04C167.391 14.72 168.079 14.56 168.767 14.56C169.759 14.56 170.567 14.84 171.191 15.4C171.831 15.96 172.151 16.856 172.151 18.088V20.992C172.151 21.76 172.151 22.416 172.151 22.96C172.167 23.488 172.191 23.888 172.223 24.16C172.271 24.512 172.415 24.72 172.655 24.784C172.943 24.848 173.335 24.88 173.831 24.88C173.831 25.296 173.799 25.616 173.735 25.84C173.687 26 173.599 26.08 173.471 26.08H168.431C168.271 26.08 168.191 26 168.191 25.84C168.191 25.776 168.199 25.664 168.215 25.504C168.231 25.328 168.271 25.16 168.335 25C168.847 24.968 169.207 24.84 169.415 24.616C169.623 24.392 169.751 24.08 169.799 23.68C169.879 23.008 169.919 22.112 169.919 20.992C169.919 20.672 169.911 20.36 169.895 20.056C169.895 19.752 169.887 19.464 169.871 19.192C169.823 18.248 169.639 17.552 169.319 17.104C169.015 16.656 168.495 16.432 167.759 16.432C167.247 16.432 166.735 16.536 166.223 16.744C165.711 16.936 165.263 17.232 164.879 17.632C164.879 18.464 164.871 19.272 164.855 20.056C164.855 20.824 164.855 21.528 164.855 22.168V23.92C164.855 24.224 164.895 24.44 164.975 24.568C165.071 24.696 165.231 24.776 165.455 24.808C165.711 24.84 166.023 24.856 166.391 24.856C166.391 25.288 166.359 25.616 166.295 25.84C166.247 26 166.159 26.08 166.031 26.08H161.111ZM175.038 26.08C174.878 26.08 174.798 25.968 174.798 25.744C174.798 25.472 174.846 25.224 174.942 25C175.518 24.968 175.918 24.84 176.142 24.616C176.382 24.392 176.518 24.08 176.55 23.68C176.582 23.408 176.598 22.992 176.598 22.432C176.614 21.872 176.622 21.28 176.622 20.656C176.622 20.032 176.614 19.424 176.598 18.832C176.598 18.224 176.59 17.744 176.574 17.392C176.542 16.816 176.302 16.504 175.854 16.456L175.038 16.384C174.878 16.384 174.798 16.28 174.798 16.072C174.798 15.864 174.878 15.616 175.038 15.328C175.278 15.264 175.614 15.2 176.046 15.136C176.494 15.072 176.926 15.016 177.342 14.968C177.774 14.92 178.086 14.896 178.278 14.896C178.806 14.896 179.046 15.216 178.998 15.856C178.966 16.32 178.942 16.872 178.926 17.512C178.91 18.136 178.894 18.8 178.878 19.504C178.878 20.192 178.878 20.864 178.878 21.52C178.878 22 178.878 22.464 178.878 22.912C178.894 23.36 178.91 23.784 178.926 24.184C178.942 24.392 178.99 24.544 179.07 24.64C179.15 24.72 179.238 24.768 179.334 24.784C179.478 24.8 179.662 24.816 179.886 24.832C180.126 24.848 180.35 24.856 180.558 24.856C180.558 25.288 180.526 25.616 180.462 25.84C180.414 26 180.302 26.08 180.126 26.08H175.038ZM177.582 12.76C177.086 12.76 176.678 12.608 176.358 12.304C176.038 11.984 175.878 11.6 175.878 11.152C175.878 10.672 176.038 10.28 176.358 9.976C176.678 9.672 177.086 9.52 177.582 9.52C178.078 9.52 178.478 9.672 178.782 9.976C179.086 10.28 179.238 10.672 179.238 11.152C179.238 11.6 179.086 11.984 178.782 12.304C178.478 12.608 178.078 12.76 177.582 12.76ZM181.882 26.08C181.722 26.08 181.642 26 181.642 25.84C181.642 25.728 181.65 25.584 181.666 25.408C181.698 25.232 181.746 25.096 181.81 25C182.322 24.968 182.682 24.84 182.89 24.616C183.114 24.392 183.242 24.08 183.274 23.68C183.306 23.408 183.322 22.992 183.322 22.432C183.338 21.872 183.346 21.28 183.346 20.656C183.346 20.032 183.338 19.408 183.322 18.784C183.322 18.144 183.314 17.648 183.298 17.296C183.266 16.72 183.026 16.408 182.578 16.36L181.762 16.288C181.602 16.288 181.522 16.184 181.522 15.976C181.522 15.752 181.602 15.496 181.762 15.208C182.034 15.144 182.37 15.088 182.77 15.04C183.17 14.976 183.562 14.92 183.946 14.872C184.33 14.824 184.618 14.8 184.81 14.8C185.13 14.8 185.346 14.88 185.458 15.04C185.586 15.2 185.65 15.48 185.65 15.88C185.65 16.024 185.65 16.176 185.65 16.336C186.178 15.792 186.786 15.36 187.474 15.04C188.162 14.72 188.85 14.56 189.538 14.56C190.53 14.56 191.338 14.84 191.962 15.4C192.602 15.96 192.922 16.856 192.922 18.088V20.992C192.922 21.76 192.922 22.416 192.922 22.96C192.938 23.488 192.962 23.888 192.994 24.16C193.042 24.512 193.186 24.72 193.426 24.784C193.714 24.848 194.106 24.88 194.602 24.88C194.602 25.296 194.57 25.616 194.506 25.84C194.458 26 194.37 26.08 194.242 26.08H189.202C189.042 26.08 188.962 26 188.962 25.84C188.962 25.776 188.97 25.664 188.986 25.504C189.002 25.328 189.042 25.16 189.106 25C189.618 24.968 189.978 24.84 190.186 24.616C190.394 24.392 190.522 24.08 190.57 23.68C190.65 23.008 190.69 22.112 190.69 20.992C190.69 20.672 190.682 20.36 190.666 20.056C190.666 19.752 190.658 19.464 190.642 19.192C190.594 18.248 190.41 17.552 190.09 17.104C189.786 16.656 189.266 16.432 188.53 16.432C188.018 16.432 187.506 16.536 186.994 16.744C186.482 16.952 186.026 17.256 185.626 17.656C185.626 18.264 185.618 18.904 185.602 19.576C185.602 20.248 185.602 20.896 185.602 21.52C185.602 22 185.602 22.464 185.602 22.912C185.618 23.36 185.634 23.784 185.65 24.184C185.666 24.392 185.714 24.544 185.794 24.64C185.874 24.72 185.962 24.768 186.058 24.784C186.346 24.832 186.714 24.856 187.162 24.856C187.162 25.016 187.154 25.2 187.138 25.408C187.122 25.616 187.098 25.76 187.066 25.84C187.018 26 186.906 26.08 186.73 26.08H181.882ZM202.356 9.688C202.356 9.464 202.436 9.208 202.596 8.92C202.836 8.856 203.164 8.8 203.58 8.752C204.012 8.704 204.436 8.664 204.852 8.632C205.268 8.584 205.572 8.56 205.764 8.56C206.084 8.56 206.3 8.64 206.412 8.8C206.54 8.96 206.588 9.24 206.556 9.64C206.476 10.904 206.42 12.416 206.388 14.176C206.372 15.92 206.364 17.808 206.364 19.84V24.04C206.364 24.328 206.412 24.52 206.508 24.616C206.604 24.696 206.748 24.736 206.94 24.736H207.684C207.844 24.736 207.924 24.816 207.924 24.976C207.924 25.072 207.908 25.208 207.876 25.384C207.844 25.56 207.796 25.712 207.732 25.84C207.38 25.968 206.956 26.08 206.46 26.176C205.964 26.272 205.564 26.32 205.26 26.32C205.052 26.272 204.844 26.144 204.636 25.936C204.428 25.712 204.268 25.408 204.156 25.024C203.676 25.472 203.124 25.824 202.5 26.08C201.892 26.32 201.268 26.44 200.628 26.44C199.604 26.44 198.724 26.176 197.988 25.648C197.252 25.104 196.684 24.4 196.284 23.536C195.884 22.656 195.684 21.704 195.684 20.68C195.684 19.928 195.804 19.192 196.044 18.472C196.3 17.736 196.668 17.08 197.148 16.504C197.644 15.912 198.252 15.44 198.972 15.088C199.692 14.736 200.524 14.56 201.468 14.56C202.012 14.56 202.5 14.624 202.932 14.752C203.38 14.88 203.78 15.056 204.132 15.28C204.132 14.48 204.132 13.712 204.132 12.976C204.132 12.24 204.124 11.568 204.108 10.96C204.108 10.368 203.868 10.064 203.388 10.048L202.596 10C202.436 10 202.356 9.896 202.356 9.688ZM204.036 23.32C204.068 22.712 204.092 21.96 204.108 21.064C204.124 20.152 204.132 19.192 204.132 18.184C203.956 17.544 203.588 17.016 203.028 16.6C202.468 16.184 201.836 15.976 201.132 15.976C200.156 15.976 199.404 16.384 198.876 17.2C198.348 18 198.084 19.032 198.084 20.296C198.084 21.096 198.212 21.832 198.468 22.504C198.724 23.16 199.092 23.688 199.572 24.088C200.068 24.472 200.66 24.664 201.348 24.664C201.844 24.664 202.332 24.552 202.812 24.328C203.308 24.088 203.716 23.752 204.036 23.32ZM209.374 26.08C209.214 26.08 209.134 26 209.134 25.84C209.134 25.728 209.142 25.584 209.158 25.408C209.19 25.232 209.238 25.096 209.302 25C209.814 24.968 210.174 24.84 210.382 24.616C210.606 24.392 210.734 24.08 210.766 23.68C210.798 23.408 210.814 22.976 210.814 22.384C210.83 21.776 210.838 21.16 210.838 20.536C210.838 19.912 210.83 19.304 210.814 18.712C210.814 18.12 210.806 17.648 210.79 17.296C210.758 16.72 210.518 16.408 210.07 16.36L209.254 16.288C209.094 16.288 209.014 16.184 209.014 15.976C209.014 15.752 209.094 15.496 209.254 15.208C209.526 15.144 209.862 15.088 210.262 15.04C210.662 14.976 211.054 14.92 211.438 14.872C211.822 14.824 212.11 14.8 212.302 14.8C212.622 14.8 212.838 14.88 212.95 15.04C213.078 15.2 213.142 15.48 213.142 15.88C213.142 15.992 213.142 16.112 213.142 16.24C213.638 15.712 214.206 15.304 214.846 15.016C215.502 14.712 216.182 14.56 216.886 14.56C217.574 14.56 218.182 14.712 218.71 15.016C219.238 15.32 219.63 15.784 219.886 16.408C220.398 15.8 221.014 15.344 221.734 15.04C222.47 14.72 223.222 14.56 223.99 14.56C224.934 14.56 225.718 14.864 226.342 15.472C226.966 16.08 227.27 17.032 227.254 18.328C227.254 18.872 227.246 19.392 227.23 19.888C227.23 20.384 227.23 20.84 227.23 21.256C227.23 21.992 227.238 22.616 227.254 23.128C227.27 23.624 227.286 23.976 227.302 24.184C227.334 24.392 227.382 24.536 227.446 24.616C227.526 24.696 227.614 24.752 227.71 24.784C227.822 24.8 227.998 24.824 228.238 24.856C228.494 24.872 228.726 24.88 228.934 24.88C228.934 25.296 228.902 25.616 228.838 25.84C228.79 26 228.702 26.08 228.574 26.08H223.534C223.374 26.08 223.294 26 223.294 25.84C223.294 25.776 223.302 25.664 223.318 25.504C223.334 25.328 223.374 25.16 223.438 25C223.918 24.968 224.27 24.84 224.494 24.616C224.734 24.392 224.878 24.08 224.926 23.68C224.958 23.488 224.974 23.184 224.974 22.768C224.99 22.336 224.998 21.896 224.998 21.448C224.998 20.984 224.99 20.536 224.974 20.104C224.974 19.672 224.966 19.368 224.95 19.192C224.886 18.248 224.718 17.552 224.446 17.104C224.174 16.656 223.662 16.432 222.91 16.432C222.398 16.432 221.902 16.52 221.422 16.696C220.942 16.856 220.51 17.136 220.126 17.536C220.142 17.696 220.15 17.864 220.15 18.04C220.15 18.584 220.142 19.112 220.126 19.624C220.126 20.12 220.126 20.6 220.126 21.064C220.126 21.832 220.134 22.496 220.15 23.056C220.166 23.6 220.182 23.976 220.198 24.184C220.23 24.392 220.278 24.536 220.342 24.616C220.422 24.696 220.51 24.752 220.606 24.784C220.718 24.8 220.878 24.824 221.086 24.856C221.294 24.872 221.502 24.88 221.71 24.88C221.71 25.296 221.678 25.616 221.614 25.84C221.566 26 221.478 26.08 221.35 26.08H216.43C216.27 26.08 216.19 26 216.19 25.84C216.19 25.776 216.198 25.664 216.214 25.504C216.23 25.328 216.27 25.16 216.334 25C216.814 24.968 217.166 24.84 217.39 24.616C217.63 24.392 217.774 24.08 217.822 23.68C217.854 23.488 217.87 23.184 217.87 22.768C217.886 22.336 217.894 21.896 217.894 21.448C217.894 20.984 217.886 20.536 217.87 20.104C217.87 19.672 217.862 19.368 217.846 19.192C217.782 18.248 217.614 17.552 217.342 17.104C217.07 16.656 216.558 16.432 215.806 16.432C214.782 16.432 213.886 16.808 213.118 17.56C213.118 18.152 213.11 18.792 213.094 19.48C213.094 20.168 213.094 20.848 213.094 21.52C213.094 22 213.094 22.464 213.094 22.912C213.11 23.36 213.126 23.784 213.142 24.184C213.158 24.392 213.206 24.544 213.286 24.64C213.366 24.72 213.454 24.768 213.55 24.784C213.838 24.832 214.206 24.856 214.654 24.856C214.654 25.016 214.646 25.2 214.63 25.408C214.614 25.616 214.59 25.76 214.558 25.84C214.51 26 214.398 26.08 214.222 26.08H209.374ZM232.468 20.68C232.532 21.912 232.884 22.904 233.524 23.656C234.164 24.392 235.084 24.76 236.284 24.76C236.892 24.76 237.492 24.64 238.084 24.4C238.676 24.16 239.172 23.832 239.572 23.416C239.908 23.784 240.076 24.152 240.076 24.52C240.06 24.76 239.892 24.992 239.572 25.216C238.98 25.648 238.316 25.96 237.58 26.152C236.844 26.344 236.148 26.44 235.492 26.44C234.516 26.44 233.612 26.232 232.78 25.816C231.948 25.384 231.276 24.752 230.764 23.92C230.268 23.088 230.02 22.048 230.02 20.8C230.02 19.568 230.244 18.488 230.692 17.56C231.156 16.616 231.804 15.88 232.636 15.352C233.484 14.824 234.484 14.56 235.636 14.56C236.58 14.56 237.388 14.752 238.06 15.136C238.748 15.52 239.276 16.056 239.644 16.744C240.028 17.416 240.22 18.184 240.22 19.048C240.22 19.496 240.124 19.832 239.932 20.056C239.756 20.264 239.444 20.384 238.996 20.416L232.468 20.68ZM235.444 15.952C234.66 15.952 234.012 16.256 233.5 16.864C232.988 17.456 232.668 18.272 232.54 19.312L237.892 19C237.94 18.024 237.74 17.272 237.292 16.744C236.86 16.216 236.244 15.952 235.444 15.952ZM242.14 26.08C241.98 26.08 241.9 26 241.9 25.84C241.9 25.728 241.908 25.584 241.924 25.408C241.956 25.232 242.004 25.096 242.068 25C242.58 24.968 242.94 24.84 243.148 24.616C243.372 24.392 243.5 24.08 243.532 23.68C243.564 23.408 243.58 22.976 243.58 22.384C243.596 21.776 243.604 21.16 243.604 20.536C243.604 19.912 243.596 19.304 243.58 18.712C243.58 18.12 243.572 17.648 243.556 17.296C243.524 16.72 243.284 16.408 242.836 16.36L242.02 16.288C241.86 16.288 241.78 16.184 241.78 15.976C241.78 15.752 241.86 15.496 242.02 15.208C242.292 15.144 242.628 15.088 243.028 15.04C243.428 14.976 243.82 14.92 244.204 14.872C244.588 14.824 244.876 14.8 245.068 14.8C245.388 14.8 245.604 14.88 245.716 15.04C245.844 15.2 245.908 15.48 245.908 15.88C245.908 15.992 245.908 16.112 245.908 16.24C246.404 15.712 246.972 15.304 247.612 15.016C248.268 14.712 248.948 14.56 249.652 14.56C250.34 14.56 250.948 14.712 251.476 15.016C252.004 15.32 252.396 15.784 252.652 16.408C253.164 15.8 253.78 15.344 254.5 15.04C255.236 14.72 255.988 14.56 256.756 14.56C257.7 14.56 258.484 14.864 259.108 15.472C259.732 16.08 260.036 17.032 260.02 18.328C260.02 18.872 260.012 19.392 259.996 19.888C259.996 20.384 259.996 20.84 259.996 21.256C259.996 21.992 260.004 22.616 260.02 23.128C260.036 23.624 260.052 23.976 260.068 24.184C260.1 24.392 260.148 24.536 260.212 24.616C260.292 24.696 260.38 24.752 260.476 24.784C260.588 24.8 260.764 24.824 261.004 24.856C261.26 24.872 261.492 24.88 261.7 24.88C261.7 25.296 261.668 25.616 261.604 25.84C261.556 26 261.468 26.08 261.34 26.08H256.3C256.14 26.08 256.06 26 256.06 25.84C256.06 25.776 256.068 25.664 256.084 25.504C256.1 25.328 256.14 25.16 256.204 25C256.684 24.968 257.036 24.84 257.26 24.616C257.5 24.392 257.644 24.08 257.692 23.68C257.724 23.488 257.74 23.184 257.74 22.768C257.756 22.336 257.764 21.896 257.764 21.448C257.764 20.984 257.756 20.536 257.74 20.104C257.74 19.672 257.732 19.368 257.716 19.192C257.652 18.248 257.484 17.552 257.212 17.104C256.94 16.656 256.428 16.432 255.676 16.432C255.164 16.432 254.668 16.52 254.188 16.696C253.708 16.856 253.276 17.136 252.892 17.536C252.908 17.696 252.916 17.864 252.916 18.04C252.916 18.584 252.908 19.112 252.892 19.624C252.892 20.12 252.892 20.6 252.892 21.064C252.892 21.832 252.9 22.496 252.916 23.056C252.932 23.6 252.948 23.976 252.964 24.184C252.996 24.392 253.044 24.536 253.108 24.616C253.188 24.696 253.276 24.752 253.372 24.784C253.484 24.8 253.644 24.824 253.852 24.856C254.06 24.872 254.268 24.88 254.476 24.88C254.476 25.296 254.444 25.616 254.38 25.84C254.332 26 254.244 26.08 254.116 26.08H249.196C249.036 26.08 248.956 26 248.956 25.84C248.956 25.776 248.964 25.664 248.98 25.504C248.996 25.328 249.036 25.16 249.1 25C249.58 24.968 249.932 24.84 250.156 24.616C250.396 24.392 250.54 24.08 250.588 23.68C250.62 23.488 250.636 23.184 250.636 22.768C250.652 22.336 250.66 21.896 250.66 21.448C250.66 20.984 250.652 20.536 250.636 20.104C250.636 19.672 250.628 19.368 250.612 19.192C250.548 18.248 250.38 17.552 250.108 17.104C249.836 16.656 249.324 16.432 248.572 16.432C247.548 16.432 246.652 16.808 245.884 17.56C245.884 18.152 245.876 18.792 245.86 19.48C245.86 20.168 245.86 20.848 245.86 21.52C245.86 22 245.86 22.464 245.86 22.912C245.876 23.36 245.892 23.784 245.908 24.184C245.924 24.392 245.972 24.544 246.052 24.64C246.132 24.72 246.22 24.768 246.316 24.784C246.604 24.832 246.972 24.856 247.42 24.856C247.42 25.016 247.412 25.2 247.396 25.408C247.38 25.616 247.356 25.76 247.324 25.84C247.276 26 247.164 26.08 246.988 26.08H242.14ZM268.257 26.44C267.169 26.44 266.209 26.208 265.377 25.744C264.561 25.28 263.921 24.624 263.457 23.776C263.009 22.912 262.785 21.912 262.785 20.776C262.785 19.544 263.033 18.464 263.529 17.536C264.041 16.608 264.753 15.88 265.665 15.352C266.577 14.824 267.625 14.56 268.809 14.56C269.913 14.56 270.873 14.792 271.689 15.256C272.521 15.72 273.161 16.376 273.609 17.224C274.073 18.056 274.305 19.04 274.305 20.176C274.321 21.392 274.073 22.472 273.561 23.416C273.049 24.36 272.337 25.104 271.425 25.648C270.513 26.176 269.457 26.44 268.257 26.44ZM268.713 24.976C269.721 24.976 270.505 24.6 271.065 23.848C271.641 23.096 271.929 22.064 271.929 20.752C271.929 19.248 271.585 18.088 270.897 17.272C270.225 16.44 269.377 16.024 268.353 16.024C267.377 16.024 266.601 16.408 266.025 17.176C265.449 17.928 265.161 18.976 265.161 20.32C265.161 21.776 265.489 22.92 266.145 23.752C266.801 24.568 267.657 24.976 268.713 24.976ZM276.101 26.08C275.941 26.08 275.861 26 275.861 25.84C275.861 25.728 275.869 25.584 275.885 25.408C275.917 25.232 275.965 25.096 276.029 25C276.541 24.968 276.901 24.84 277.109 24.616C277.333 24.392 277.461 24.08 277.493 23.68C277.525 23.408 277.541 22.976 277.541 22.384C277.557 21.776 277.565 21.16 277.565 20.536C277.565 19.912 277.557 19.304 277.541 18.712C277.541 18.12 277.533 17.648 277.517 17.296C277.485 16.72 277.245 16.408 276.797 16.36L275.981 16.288C275.821 16.272 275.741 16.168 275.741 15.976C275.741 15.752 275.821 15.496 275.981 15.208C276.253 15.144 276.589 15.088 276.989 15.04C277.389 14.976 277.781 14.92 278.165 14.872C278.549 14.824 278.837 14.8 279.029 14.8C279.349 14.8 279.565 14.88 279.677 15.04C279.805 15.2 279.869 15.48 279.869 15.88C279.869 16.088 279.869 16.32 279.869 16.576C280.221 15.952 280.653 15.464 281.165 15.112C281.677 14.744 282.245 14.56 282.869 14.56C283.237 14.56 283.533 14.6 283.757 14.68C283.981 14.76 284.173 14.848 284.333 14.944C284.445 15.008 284.501 15.104 284.501 15.232C284.501 15.536 284.405 15.904 284.213 16.336C284.037 16.752 283.837 17.04 283.613 17.2C282.877 16.784 282.237 16.576 281.693 16.576C281.213 16.576 280.837 16.736 280.565 17.056C280.309 17.36 280.125 17.784 280.013 18.328C279.901 18.856 279.837 19.456 279.821 20.128C279.821 20.336 279.821 20.552 279.821 20.776C279.821 20.984 279.821 21.192 279.821 21.4C279.821 21.88 279.821 22.368 279.821 22.864C279.837 23.344 279.853 23.784 279.869 24.184C279.885 24.392 279.933 24.544 280.013 24.64C280.093 24.72 280.181 24.768 280.277 24.784C280.533 24.8 280.805 24.816 281.093 24.832C281.397 24.848 281.653 24.856 281.861 24.856C281.861 25.016 281.853 25.2 281.837 25.408C281.821 25.616 281.797 25.76 281.765 25.84C281.717 26 281.605 26.08 281.429 26.08H276.101ZM287.561 30.832C286.937 30.832 286.241 30.664 285.473 30.328C285.457 30.152 285.481 29.928 285.545 29.656C285.609 29.384 285.713 29.176 285.857 29.032C286.033 29.048 286.201 29.064 286.361 29.08C286.537 29.112 286.697 29.128 286.841 29.128C287.577 29.128 288.273 28.856 288.929 28.312C289.585 27.768 290.145 27.024 290.609 26.08L287.057 18.208C286.817 17.648 286.601 17.224 286.409 16.936C286.233 16.648 286.025 16.448 285.785 16.336C285.545 16.224 285.193 16.152 284.729 16.12C284.729 15.944 284.745 15.76 284.777 15.568C284.809 15.376 284.833 15.24 284.849 15.16C284.897 15 284.993 14.92 285.137 14.92H290.129C290.289 14.92 290.369 15 290.369 15.16C290.369 15.224 290.361 15.336 290.345 15.496C290.329 15.656 290.289 15.824 290.225 16C289.841 16.016 289.569 16.08 289.409 16.192C289.249 16.288 289.169 16.44 289.169 16.648C289.169 16.808 289.201 17 289.265 17.224C289.345 17.432 289.441 17.672 289.553 17.944L291.737 23.176L293.633 17.992C293.729 17.72 293.801 17.48 293.849 17.272C293.913 17.064 293.945 16.88 293.945 16.72C293.945 16.448 293.857 16.264 293.681 16.168C293.505 16.072 293.233 16.016 292.865 16C292.897 15.632 292.937 15.352 292.985 15.16C293.033 15 293.145 14.92 293.321 14.92H297.209C297.369 14.92 297.449 15 297.449 15.16C297.449 15.272 297.433 15.416 297.401 15.592C297.385 15.768 297.345 15.904 297.281 16C296.897 16.032 296.585 16.104 296.345 16.216C296.121 16.328 295.929 16.52 295.769 16.792C295.609 17.048 295.425 17.432 295.217 17.944L292.001 26.08C291.505 27.584 290.897 28.752 290.177 29.584C289.473 30.416 288.601 30.832 287.561 30.832ZM300.468 27.4C299.972 27.4 299.564 27.24 299.244 26.92C298.924 26.6 298.764 26.192 298.764 25.696C298.764 25.232 298.924 24.84 299.244 24.52C299.564 24.2 299.972 24.04 300.468 24.04C300.948 24.04 301.34 24.2 301.644 24.52C301.964 24.84 302.124 25.232 302.124 25.696C302.124 26.192 301.964 26.6 301.644 26.92C301.34 27.24 300.948 27.4 300.468 27.4ZM310.447 26.44C309.439 26.44 308.511 26.24 307.663 25.84C306.815 25.44 306.135 24.824 305.623 23.992C305.127 23.16 304.879 22.104 304.879 20.824C304.879 19.624 305.119 18.552 305.599 17.608C306.095 16.664 306.799 15.92 307.711 15.376C308.639 14.832 309.743 14.56 311.023 14.56C311.887 14.56 312.591 14.68 313.135 14.92C313.695 15.16 314.103 15.424 314.359 15.712C314.631 15.984 314.767 16.184 314.767 16.312C314.767 16.472 314.679 16.656 314.503 16.864C314.343 17.056 314.135 17.232 313.879 17.392C313.623 17.552 313.359 17.664 313.087 17.728C312.863 17.024 312.503 16.552 312.007 16.312C311.511 16.072 310.991 15.952 310.447 15.952C309.759 15.952 309.175 16.16 308.695 16.576C308.231 16.976 307.879 17.504 307.639 18.16C307.415 18.816 307.303 19.504 307.303 20.224C307.303 20.976 307.431 21.704 307.687 22.408C307.959 23.112 308.359 23.688 308.887 24.136C309.415 24.584 310.071 24.808 310.855 24.808C311.527 24.808 312.191 24.672 312.847 24.4C313.503 24.112 314.031 23.76 314.431 23.344C314.591 23.504 314.735 23.688 314.863 23.896C315.007 24.104 315.079 24.288 315.079 24.448C315.079 24.688 314.919 24.92 314.599 25.144C313.959 25.592 313.271 25.92 312.535 26.128C311.799 26.336 311.103 26.44 310.447 26.44ZM322 26.44C320.912 26.44 319.952 26.208 319.12 25.744C318.304 25.28 317.664 24.624 317.2 23.776C316.752 22.912 316.528 21.912 316.528 20.776C316.528 19.544 316.775 18.464 317.271 17.536C317.784 16.608 318.496 15.88 319.408 15.352C320.32 14.824 321.368 14.56 322.552 14.56C323.656 14.56 324.616 14.792 325.432 15.256C326.264 15.72 326.904 16.376 327.352 17.224C327.816 18.056 328.048 19.04 328.048 20.176C328.064 21.392 327.816 22.472 327.304 23.416C326.792 24.36 326.08 25.104 325.168 25.648C324.256 26.176 323.2 26.44 322 26.44ZM322.456 24.976C323.464 24.976 324.248 24.6 324.808 23.848C325.384 23.096 325.672 22.064 325.672 20.752C325.672 19.248 325.328 18.088 324.64 17.272C323.968 16.44 323.12 16.024 322.096 16.024C321.12 16.024 320.344 16.408 319.768 17.176C319.192 17.928 318.904 18.976 318.904 20.32C318.904 21.776 319.232 22.92 319.888 23.752C320.544 24.568 321.4 24.976 322.456 24.976ZM329.843 26.08C329.683 26.08 329.603 26 329.603 25.84C329.603 25.728 329.611 25.584 329.627 25.408C329.659 25.232 329.707 25.096 329.771 25C330.283 24.968 330.643 24.84 330.851 24.616C331.075 24.392 331.203 24.08 331.235 23.68C331.267 23.408 331.283 22.976 331.283 22.384C331.299 21.776 331.307 21.16 331.307 20.536C331.307 19.912 331.299 19.304 331.283 18.712C331.283 18.12 331.275 17.648 331.259 17.296C331.227 16.72 330.987 16.408 330.539 16.36L329.723 16.288C329.563 16.288 329.483 16.184 329.483 15.976C329.483 15.752 329.563 15.496 329.723 15.208C329.995 15.144 330.331 15.088 330.731 15.04C331.131 14.976 331.523 14.92 331.907 14.872C332.291 14.824 332.579 14.8 332.771 14.8C333.091 14.8 333.307 14.88 333.419 15.04C333.547 15.2 333.611 15.48 333.611 15.88C333.611 15.992 333.611 16.112 333.611 16.24C334.107 15.712 334.675 15.304 335.315 15.016C335.971 14.712 336.651 14.56 337.355 14.56C338.043 14.56 338.651 14.712 339.179 15.016C339.707 15.32 340.099 15.784 340.355 16.408C340.867 15.8 341.483 15.344 342.203 15.04C342.939 14.72 343.691 14.56 344.459 14.56C345.403 14.56 346.187 14.864 346.811 15.472C347.435 16.08 347.739 17.032 347.723 18.328C347.723 18.872 347.715 19.392 347.699 19.888C347.699 20.384 347.699 20.84 347.699 21.256C347.699 21.992 347.707 22.616 347.723 23.128C347.739 23.624 347.755 23.976 347.771 24.184C347.803 24.392 347.851 24.536 347.915 24.616C347.995 24.696 348.083 24.752 348.179 24.784C348.291 24.8 348.467 24.824 348.707 24.856C348.963 24.872 349.195 24.88 349.403 24.88C349.403 25.296 349.371 25.616 349.307 25.84C349.259 26 349.171 26.08 349.043 26.08H344.003C343.843 26.08 343.763 26 343.763 25.84C343.763 25.776 343.771 25.664 343.787 25.504C343.803 25.328 343.843 25.16 343.907 25C344.387 24.968 344.739 24.84 344.963 24.616C345.203 24.392 345.347 24.08 345.395 23.68C345.427 23.488 345.443 23.184 345.443 22.768C345.459 22.336 345.467 21.896 345.467 21.448C345.467 20.984 345.459 20.536 345.443 20.104C345.443 19.672 345.435 19.368 345.419 19.192C345.355 18.248 345.187 17.552 344.915 17.104C344.643 16.656 344.131 16.432 343.379 16.432C342.867 16.432 342.371 16.52 341.891 16.696C341.411 16.856 340.979 17.136 340.595 17.536C340.611 17.696 340.619 17.864 340.619 18.04C340.619 18.584 340.611 19.112 340.595 19.624C340.595 20.12 340.595 20.6 340.595 21.064C340.595 21.832 340.603 22.496 340.619 23.056C340.635 23.6 340.651 23.976 340.667 24.184C340.699 24.392 340.747 24.536 340.811 24.616C340.891 24.696 340.979 24.752 341.075 24.784C341.187 24.8 341.347 24.824 341.555 24.856C341.763 24.872 341.971 24.88 342.179 24.88C342.179 25.296 342.147 25.616 342.083 25.84C342.035 26 341.947 26.08 341.819 26.08H336.899C336.739 26.08 336.659 26 336.659 25.84C336.659 25.776 336.667 25.664 336.683 25.504C336.699 25.328 336.739 25.16 336.803 25C337.283 24.968 337.635 24.84 337.859 24.616C338.099 24.392 338.243 24.08 338.291 23.68C338.323 23.488 338.339 23.184 338.339 22.768C338.355 22.336 338.363 21.896 338.363 21.448C338.363 20.984 338.355 20.536 338.339 20.104C338.339 19.672 338.331 19.368 338.315 19.192C338.251 18.248 338.083 17.552 337.811 17.104C337.539 16.656 337.027 16.432 336.275 16.432C335.251 16.432 334.355 16.808 333.587 17.56C333.587 18.152 333.579 18.792 333.563 19.48C333.563 20.168 333.563 20.848 333.563 21.52C333.563 22 333.563 22.464 333.563 22.912C333.579 23.36 333.595 23.784 333.611 24.184C333.627 24.392 333.675 24.544 333.755 24.64C333.835 24.72 333.923 24.768 334.019 24.784C334.307 24.832 334.675 24.856 335.123 24.856C335.123 25.016 335.115 25.2 335.099 25.408C335.083 25.616 335.059 25.76 335.027 25.84C334.979 26 334.867 26.08 334.691 26.08H329.843Z" fill="#0B1D6F"/>
</svg>
