<svg width="350" height="35" viewBox="0 0 350 35" fill="none" xmlns="http://www.w3.org/2000/svg">
<path d="M6.40809 26.4396C5.40009 26.4396 4.47209 26.2396 3.62409 25.8396C2.77609 25.4396 2.09609 24.8236 1.58409 23.9916C1.08809 23.1596 0.840088 22.1036 0.840088 20.8236C0.840088 19.6236 1.08009 18.5516 1.56009 17.6076C2.05609 16.6636 2.76009 15.9196 3.67209 15.3756C4.60009 14.8316 5.70409 14.5596 6.98409 14.5596C7.84809 14.5596 8.55209 14.6796 9.09609 14.9196C9.65609 15.1596 10.0641 15.4236 10.3201 15.7116C10.5921 15.9836 10.7281 16.1836 10.7281 16.3116C10.7281 16.4716 10.6401 16.6556 10.4641 16.8636C10.3041 17.0556 10.0961 17.2316 9.84009 17.3916C9.58409 17.5516 9.32009 17.6636 9.04809 17.7276C8.82409 17.0236 8.46409 16.5516 7.96809 16.3116C7.47209 16.0716 6.95209 15.9516 6.40809 15.9516C5.72009 15.9516 5.13609 16.1596 4.65609 16.5756C4.19209 16.9756 3.84009 17.5036 3.60009 18.1596C3.37609 18.8156 3.26409 19.5036 3.26409 20.2236C3.26409 20.9756 3.39209 21.7036 3.64809 22.4076C3.92009 23.1116 4.32009 23.6876 4.84809 24.1356C5.37609 24.5836 6.03209 24.8076 6.81609 24.8076C7.48809 24.8076 8.15209 24.6716 8.80809 24.3996C9.46409 24.1116 9.99209 23.7596 10.3921 23.3436C10.5521 23.5036 10.6961 23.6876 10.8241 23.8956C10.9681 24.1036 11.0401 24.2876 11.0401 24.4476C11.0401 24.6876 10.8801 24.9196 10.5601 25.1436C9.92009 25.5916 9.23209 25.9196 8.49609 26.1276C7.76009 26.3356 7.06409 26.4396 6.40809 26.4396ZM12.6085 26.0796C12.4485 26.0796 12.3685 25.9996 12.3685 25.8396C12.3685 25.7276 12.3765 25.5836 12.3925 25.4076C12.4245 25.2316 12.4725 25.0956 12.5365 24.9996C13.0485 24.9676 13.4085 24.8396 13.6165 24.6156C13.8405 24.3916 13.9685 24.0796 14.0005 23.6796C14.0325 23.4076 14.0485 22.9756 14.0485 22.3836C14.0645 21.7756 14.0725 21.1596 14.0725 20.5356C14.0725 19.9116 14.0645 19.3036 14.0485 18.7116C14.0485 18.1196 14.0405 17.6476 14.0245 17.2956C13.9925 16.7196 13.7525 16.4076 13.3045 16.3596L12.4885 16.2876C12.3285 16.2716 12.2485 16.1676 12.2485 15.9756C12.2485 15.7516 12.3285 15.4956 12.4885 15.2076C12.7605 15.1436 13.0965 15.0876 13.4965 15.0396C13.8965 14.9756 14.2885 14.9196 14.6725 14.8716C15.0565 14.8236 15.3445 14.7996 15.5365 14.7996C15.8565 14.7996 16.0725 14.8796 16.1845 15.0396C16.3125 15.1996 16.3765 15.4796 16.3765 15.8796C16.3765 16.0876 16.3765 16.3196 16.3765 16.5756C16.7285 15.9516 17.1605 15.4636 17.6725 15.1116C18.1845 14.7436 18.7525 14.5596 19.3765 14.5596C19.7445 14.5596 20.0405 14.5996 20.2645 14.6796C20.4885 14.7596 20.6805 14.8476 20.8405 14.9436C20.9525 15.0076 21.0085 15.1036 21.0085 15.2316C21.0085 15.5356 20.9125 15.9036 20.7205 16.3356C20.5445 16.7516 20.3445 17.0396 20.1205 17.1996C19.3845 16.7836 18.7445 16.5756 18.2005 16.5756C17.7205 16.5756 17.3445 16.7356 17.0725 17.0556C16.8165 17.3596 16.6325 17.7836 16.5205 18.3276C16.4085 18.8556 16.3445 19.4556 16.3285 20.1276C16.3285 20.3356 16.3285 20.5516 16.3285 20.7756C16.3285 20.9836 16.3285 21.1916 16.3285 21.3996C16.3285 21.8796 16.3285 22.3676 16.3285 22.8636C16.3445 23.3436 16.3605 23.7836 16.3765 24.1836C16.3925 24.3916 16.4405 24.5436 16.5205 24.6396C16.6005 24.7196 16.6885 24.7676 16.7845 24.7836C17.0405 24.7996 17.3125 24.8156 17.6005 24.8316C17.9045 24.8476 18.1605 24.8556 18.3685 24.8556C18.3685 25.0156 18.3605 25.1996 18.3445 25.4076C18.3285 25.6156 18.3045 25.7596 18.2725 25.8396C18.2245 25.9996 18.1125 26.0796 17.9365 26.0796H12.6085ZM24.1709 20.6796C24.2349 21.9116 24.5869 22.9036 25.2269 23.6556C25.8669 24.3916 26.7869 24.7596 27.9869 24.7596C28.5949 24.7596 29.1949 24.6396 29.7869 24.3996C30.3789 24.1596 30.8749 23.8316 31.2749 23.4156C31.6109 23.7836 31.7789 24.1516 31.7789 24.5196C31.7629 24.7596 31.5949 24.9916 31.2749 25.2156C30.6829 25.6476 30.0189 25.9596 29.2829 26.1516C28.5469 26.3436 27.8509 26.4396 27.1949 26.4396C26.2189 26.4396 25.3149 26.2316 24.4829 25.8156C23.6509 25.3836 22.9789 24.7516 22.4669 23.9196C21.9709 23.0876 21.7229 22.0476 21.7229 20.7996C21.7229 19.5676 21.9469 18.4876 22.3949 17.5596C22.8589 16.6156 23.5069 15.8796 24.3389 15.3516C25.1869 14.8236 26.1869 14.5596 27.3389 14.5596C28.2829 14.5596 29.0909 14.7516 29.7629 15.1356C30.4509 15.5196 30.9789 16.0556 31.3469 16.7436C31.7309 17.4156 31.9229 18.1836 31.9229 19.0476C31.9229 19.4956 31.8269 19.8316 31.6349 20.0556C31.4589 20.2636 31.1469 20.3836 30.6989 20.4156L24.1709 20.6796ZM27.1469 15.9516C26.3629 15.9516 25.7149 16.2556 25.2029 16.8636C24.6909 17.4556 24.3709 18.2716 24.2429 19.3116L29.5949 18.9996C29.6429 18.0236 29.4429 17.2716 28.9949 16.7436C28.5629 16.2156 27.9469 15.9516 27.1469 15.9516ZM42.0933 26.3196C41.9013 26.2716 41.7013 26.1596 41.4933 25.9836C41.3013 25.7916 41.1493 25.5356 41.0373 25.2156C40.6373 25.5676 40.1493 25.8636 39.5733 26.1036C39.0133 26.3276 38.3333 26.4396 37.5333 26.4396C36.4773 26.4396 35.6133 26.1756 34.9413 25.6476C34.2853 25.1036 33.9573 24.3836 33.9573 23.4876C33.9573 22.5596 34.2213 21.8236 34.7493 21.2796C35.2933 20.7356 36.0773 20.3116 37.1013 20.0076C38.1413 19.6876 39.3973 19.4236 40.8693 19.2156V18.5196C40.8853 17.4796 40.7093 16.7676 40.3413 16.3836C39.9893 15.9996 39.4293 15.8076 38.6613 15.8076C38.1333 15.8076 37.7253 15.9196 37.4373 16.1436C37.1653 16.3676 36.9733 16.6636 36.8613 17.0316C36.7653 17.3836 36.7013 17.7676 36.6693 18.1836C36.3333 18.1836 35.9813 18.1516 35.6133 18.0876C35.2453 18.0076 34.9413 17.9036 34.7013 17.7756C34.4613 17.6476 34.3653 17.4876 34.4133 17.2956C34.5413 16.7996 34.8453 16.3436 35.3253 15.9276C35.8053 15.5116 36.4133 15.1836 37.1493 14.9436C37.8853 14.6876 38.6933 14.5596 39.5733 14.5596C40.8053 14.5596 41.7333 14.8476 42.3573 15.4236C42.9973 15.9996 43.2853 16.8956 43.2213 18.1116C43.2053 18.3836 43.1893 18.8396 43.1733 19.4796C43.1733 20.1036 43.1733 20.7436 43.1733 21.3996C43.1733 21.9436 43.1733 22.4636 43.1733 22.9596C43.1893 23.4396 43.2053 23.8076 43.2213 24.0636C43.2533 24.3516 43.3253 24.5436 43.4373 24.6396C43.5493 24.7356 43.6933 24.7756 43.8693 24.7596L44.6373 24.7116C44.7973 24.7116 44.8773 24.7916 44.8773 24.9516C44.8773 25.0476 44.8613 25.1836 44.8293 25.3596C44.7973 25.5356 44.7493 25.6876 44.6853 25.8156C44.3813 25.9436 43.9653 26.0636 43.4373 26.1756C42.9093 26.2716 42.4613 26.3196 42.0933 26.3196ZM40.8213 23.6076L40.8453 20.3916C40.0453 20.5036 39.3093 20.6636 38.6373 20.8716C37.9813 21.0796 37.4533 21.3756 37.0533 21.7596C36.6693 22.1276 36.4773 22.6156 36.4773 23.2236C36.4773 23.6556 36.6293 24.0396 36.9333 24.3756C37.2373 24.7116 37.6853 24.8796 38.2773 24.8796C38.7573 24.8796 39.2453 24.7836 39.7413 24.5916C40.2373 24.3836 40.5973 24.0556 40.8213 23.6076ZM50.7813 26.4396C49.7093 26.4396 48.8533 26.1756 48.2133 25.6476C47.5893 25.1196 47.2853 24.2156 47.3013 22.9356L47.3493 16.3596H45.7893C45.5813 16.3596 45.4773 16.2556 45.4773 16.0476C45.4773 15.8716 45.5173 15.6636 45.5973 15.4236C45.6773 15.1836 45.7493 15.0156 45.8133 14.9196H47.3493V12.9996C47.3493 12.7116 47.4693 12.5116 47.7093 12.3996C47.9653 12.2716 48.3093 12.1596 48.7413 12.0636C49.1893 11.9676 49.5893 11.9196 49.9413 11.9196C49.8933 12.1756 49.8533 12.5756 49.8213 13.1196C49.7893 13.6476 49.7573 14.2476 49.7253 14.9196H51.3093C52.2533 14.9196 52.9813 14.8796 53.4933 14.7996C53.4133 15.3276 53.3013 15.7596 53.1573 16.0956C53.0773 16.2716 52.8933 16.3596 52.6053 16.3596H49.6773C49.6453 17.1596 49.6213 17.9596 49.6053 18.7596C49.6053 19.5596 49.6053 20.2796 49.6053 20.9196C49.6053 21.2556 49.6053 21.5676 49.6053 21.8556C49.6053 22.1276 49.6133 22.3676 49.6293 22.5756C49.6773 23.3116 49.8693 23.8396 50.2053 24.1596C50.5413 24.4796 50.9333 24.6396 51.3813 24.6396C51.7173 24.6396 52.0613 24.5916 52.4133 24.4956C52.7813 24.3836 53.1893 24.2236 53.6373 24.0156C53.6853 24.1596 53.7333 24.3356 53.7813 24.5436C53.8453 24.7516 53.8773 24.9356 53.8773 25.0956C53.8773 25.2716 53.7973 25.4156 53.6373 25.5276C53.1413 25.8316 52.6613 26.0636 52.1973 26.2236C51.7493 26.3676 51.2773 26.4396 50.7813 26.4396ZM57.2881 20.6796C57.3521 21.9116 57.7041 22.9036 58.3441 23.6556C58.9841 24.3916 59.9041 24.7596 61.1041 24.7596C61.7121 24.7596 62.3121 24.6396 62.9041 24.3996C63.4961 24.1596 63.9921 23.8316 64.3921 23.4156C64.7281 23.7836 64.8961 24.1516 64.8961 24.5196C64.8801 24.7596 64.7121 24.9916 64.3921 25.2156C63.8001 25.6476 63.1361 25.9596 62.4001 26.1516C61.6641 26.3436 60.9681 26.4396 60.3121 26.4396C59.3361 26.4396 58.4321 26.2316 57.6001 25.8156C56.7681 25.3836 56.0961 24.7516 55.5841 23.9196C55.0881 23.0876 54.8401 22.0476 54.8401 20.7996C54.8401 19.5676 55.0641 18.4876 55.5121 17.5596C55.9761 16.6156 56.6241 15.8796 57.4561 15.3516C58.3041 14.8236 59.3041 14.5596 60.4561 14.5596C61.4001 14.5596 62.2081 14.7516 62.8801 15.1356C63.5681 15.5196 64.0961 16.0556 64.4641 16.7436C64.8481 17.4156 65.0401 18.1836 65.0401 19.0476C65.0401 19.4956 64.9441 19.8316 64.7521 20.0556C64.5761 20.2636 64.2641 20.3836 63.8161 20.4156L57.2881 20.6796ZM60.2641 15.9516C59.4801 15.9516 58.8321 16.2556 58.3201 16.8636C57.8081 17.4556 57.4881 18.2716 57.3601 19.3116L62.7121 18.9996C62.7601 18.0236 62.5601 17.2716 62.1121 16.7436C61.6801 16.2156 61.0641 15.9516 60.2641 15.9516ZM85.3818 26.4396L83.0058 19.7436L80.3178 26.0796C80.2058 26.2236 79.9738 26.3276 79.6218 26.3916C79.2858 26.4396 78.9578 26.4556 78.6378 26.4396L75.6618 18.2076C75.4538 17.6316 75.2698 17.1996 75.1098 16.9116C74.9658 16.6076 74.7738 16.4076 74.5338 16.3116C74.3098 16.1996 73.9818 16.1356 73.5498 16.1196C73.5498 15.9436 73.5658 15.7596 73.5978 15.5676C73.6298 15.3756 73.6538 15.2396 73.6698 15.1596C73.7178 14.9996 73.8138 14.9196 73.9578 14.9196H78.5898C78.7498 14.9196 78.8298 14.9996 78.8298 15.1596C78.8298 15.2236 78.8218 15.3356 78.8058 15.4956C78.7898 15.6556 78.7498 15.8236 78.6858 15.9996C78.3978 15.9996 78.1818 16.0396 78.0378 16.1196C77.8938 16.1996 77.8218 16.3596 77.8218 16.5996C77.8218 16.7436 77.8458 16.9276 77.8938 17.1516C77.9578 17.3596 78.0378 17.6236 78.1338 17.9436L79.9578 23.5596L82.3338 17.9196C82.1578 17.4236 81.9978 17.0556 81.8538 16.8156C81.7098 16.5596 81.5338 16.3836 81.3258 16.2876C81.1178 16.1916 80.8298 16.1356 80.4618 16.1196C80.4618 15.9436 80.4778 15.7596 80.5098 15.5676C80.5418 15.3756 80.5658 15.2396 80.5818 15.1596C80.6298 14.9996 80.7258 14.9196 80.8698 14.9196H85.2618C85.4218 14.9196 85.5018 14.9996 85.5018 15.1596C85.5018 15.2236 85.4938 15.3356 85.4778 15.4956C85.4618 15.6556 85.4218 15.8236 85.3578 15.9996C85.0698 15.9996 84.8618 16.0396 84.7338 16.1196C84.6058 16.1836 84.5418 16.3276 84.5418 16.5516C84.5418 16.8556 84.6458 17.3196 84.8538 17.9436L86.6058 23.3196L88.4538 17.9916C88.5498 17.7036 88.6218 17.4556 88.6698 17.2476C88.7338 17.0396 88.7658 16.8636 88.7658 16.7196C88.7658 16.4476 88.6778 16.2636 88.5018 16.1676C88.3258 16.0716 88.0538 16.0156 87.6858 15.9996C87.7178 15.6316 87.7578 15.3516 87.8058 15.1596C87.8538 14.9996 87.9658 14.9196 88.1418 14.9196H91.7898C91.9498 14.9196 92.0298 14.9996 92.0298 15.1596C92.0298 15.2716 92.0138 15.4156 91.9818 15.5916C91.9658 15.7676 91.9258 15.9036 91.8618 15.9996C91.5098 16.0316 91.2218 16.1036 90.9978 16.2156C90.7738 16.3116 90.5818 16.4956 90.4218 16.7676C90.2778 17.0236 90.1098 17.4156 89.9178 17.9436L87.0378 26.0796C86.9258 26.2236 86.7178 26.3276 86.4138 26.3916C86.1098 26.4396 85.7658 26.4556 85.3818 26.4396ZM93.1164 26.0796C92.9564 26.0796 92.8764 25.9676 92.8764 25.7436C92.8764 25.4716 92.9244 25.2236 93.0204 24.9996C93.5964 24.9676 93.9964 24.8396 94.2204 24.6156C94.4604 24.3916 94.5964 24.0796 94.6284 23.6796C94.6604 23.4076 94.6764 22.9916 94.6764 22.4316C94.6924 21.8716 94.7004 21.2796 94.7004 20.6556C94.7004 20.0316 94.6924 19.4236 94.6764 18.8316C94.6764 18.2236 94.6684 17.7436 94.6524 17.3916C94.6204 16.8156 94.3804 16.5036 93.9324 16.4556L93.1164 16.3836C92.9564 16.3836 92.8764 16.2796 92.8764 16.0716C92.8764 15.8636 92.9564 15.6156 93.1164 15.3276C93.3564 15.2636 93.6924 15.1996 94.1244 15.1356C94.5724 15.0716 95.0044 15.0156 95.4204 14.9676C95.8524 14.9196 96.1644 14.8956 96.3564 14.8956C96.8844 14.8956 97.1244 15.2156 97.0764 15.8556C97.0444 16.3196 97.0204 16.8716 97.0044 17.5116C96.9884 18.1356 96.9724 18.7996 96.9564 19.5036C96.9564 20.1916 96.9564 20.8636 96.9564 21.5196C96.9564 21.9996 96.9564 22.4636 96.9564 22.9116C96.9724 23.3596 96.9884 23.7836 97.0044 24.1836C97.0204 24.3916 97.0684 24.5436 97.1484 24.6396C97.2284 24.7196 97.3164 24.7676 97.4124 24.7836C97.5564 24.7996 97.7404 24.8156 97.9644 24.8316C98.2044 24.8476 98.4284 24.8556 98.6364 24.8556C98.6364 25.2876 98.6044 25.6156 98.5404 25.8396C98.4924 25.9996 98.3804 26.0796 98.2044 26.0796H93.1164ZM95.6604 12.7596C95.1644 12.7596 94.7564 12.6076 94.4364 12.3036C94.1164 11.9836 93.9564 11.5996 93.9564 11.1516C93.9564 10.6716 94.1164 10.2796 94.4364 9.97557C94.7564 9.67157 95.1644 9.51957 95.6604 9.51957C96.1564 9.51957 96.5564 9.67157 96.8604 9.97557C97.1644 10.2796 97.3164 10.6716 97.3164 11.1516C97.3164 11.5996 97.1644 11.9836 96.8604 12.3036C96.5564 12.6076 96.1564 12.7596 95.6604 12.7596ZM104.664 26.4396C103.592 26.4396 102.736 26.1756 102.096 25.6476C101.472 25.1196 101.168 24.2156 101.184 22.9356L101.232 16.3596H99.6721C99.4641 16.3596 99.3601 16.2556 99.3601 16.0476C99.3601 15.8716 99.4001 15.6636 99.4801 15.4236C99.5601 15.1836 99.6321 15.0156 99.6961 14.9196H101.232V12.9996C101.232 12.7116 101.352 12.5116 101.592 12.3996C101.848 12.2716 102.192 12.1596 102.624 12.0636C103.072 11.9676 103.472 11.9196 103.824 11.9196C103.776 12.1756 103.736 12.5756 103.704 13.1196C103.672 13.6476 103.64 14.2476 103.608 14.9196H105.192C106.136 14.9196 106.864 14.8796 107.376 14.7996C107.296 15.3276 107.184 15.7596 107.04 16.0956C106.96 16.2716 106.776 16.3596 106.488 16.3596H103.56C103.528 17.1596 103.504 17.9596 103.488 18.7596C103.488 19.5596 103.488 20.2796 103.488 20.9196C103.488 21.2556 103.488 21.5676 103.488 21.8556C103.488 22.1276 103.496 22.3676 103.512 22.5756C103.56 23.3116 103.752 23.8396 104.088 24.1596C104.424 24.4796 104.816 24.6396 105.264 24.6396C105.6 24.6396 105.944 24.5916 106.296 24.4956C106.664 24.3836 107.072 24.2236 107.52 24.0156C107.568 24.1596 107.616 24.3356 107.664 24.5436C107.728 24.7516 107.76 24.9356 107.76 25.0956C107.76 25.2716 107.68 25.4156 107.52 25.5276C107.024 25.8316 106.544 26.0636 106.08 26.2236C105.632 26.3676 105.16 26.4396 104.664 26.4396ZM109.072 26.0796C108.912 26.0796 108.832 25.9996 108.832 25.8396C108.832 25.7756 108.84 25.6476 108.856 25.4556C108.872 25.2476 108.912 25.0956 108.976 24.9996C109.488 24.9676 109.848 24.8396 110.056 24.6156C110.28 24.3916 110.408 24.0796 110.44 23.6796C110.472 23.3756 110.496 22.8396 110.512 22.0716C110.528 21.3036 110.544 20.4236 110.56 19.4316C110.592 18.4236 110.608 17.3996 110.608 16.3596C110.624 15.3196 110.632 14.3756 110.632 13.5276C110.632 12.9196 110.624 12.3916 110.608 11.9436C110.608 11.4796 110.6 11.1516 110.584 10.9596C110.568 10.6876 110.504 10.4716 110.392 10.3116C110.296 10.1516 110.12 10.0636 109.864 10.0476L109.072 9.99957C108.912 9.99957 108.832 9.89557 108.832 9.68757C108.832 9.46357 108.912 9.20757 109.072 8.91957C109.312 8.85557 109.64 8.79957 110.056 8.75157C110.488 8.70357 110.904 8.66357 111.304 8.63157C111.72 8.58357 112.024 8.55957 112.216 8.55957C112.536 8.55957 112.752 8.63957 112.864 8.79957C112.992 8.95957 113.04 9.23957 113.008 9.63957C112.992 9.95957 112.976 10.4556 112.96 11.1276C112.944 11.7996 112.928 12.5916 112.912 13.5036C112.896 14.3996 112.88 15.3356 112.864 16.3116C113.392 15.7836 113.992 15.3596 114.664 15.0396C115.352 14.7196 116.04 14.5596 116.728 14.5596C117.72 14.5596 118.528 14.8396 119.152 15.3996C119.792 15.9596 120.112 16.8556 120.112 18.0876V20.9916C120.112 21.7596 120.112 22.4156 120.112 22.9596C120.128 23.4876 120.152 23.8876 120.184 24.1596C120.232 24.5116 120.376 24.7196 120.616 24.7836C120.904 24.8476 121.296 24.8796 121.792 24.8796C121.792 25.2956 121.76 25.6156 121.696 25.8396C121.648 25.9996 121.56 26.0796 121.432 26.0796H116.392C116.232 26.0796 116.152 25.9996 116.152 25.8396C116.152 25.7756 116.16 25.6636 116.176 25.5036C116.192 25.3276 116.232 25.1596 116.296 24.9996C116.808 24.9676 117.168 24.8396 117.376 24.6156C117.584 24.3916 117.712 24.0796 117.76 23.6796C117.84 23.0076 117.88 22.1116 117.88 20.9916C117.88 20.6716 117.872 20.3596 117.856 20.0556C117.856 19.7516 117.848 19.4636 117.832 19.1916C117.784 18.2476 117.6 17.5516 117.28 17.1036C116.976 16.6556 116.456 16.4316 115.72 16.4316C115.208 16.4316 114.696 16.5356 114.184 16.7436C113.672 16.9356 113.224 17.2316 112.84 17.6316C112.84 18.4636 112.832 19.2716 112.816 20.0556C112.816 20.8236 112.816 21.5276 112.816 22.1676V23.9196C112.816 24.2236 112.856 24.4396 112.936 24.5676C113.032 24.6956 113.192 24.7756 113.416 24.8076C113.672 24.8396 113.984 24.8556 114.352 24.8556C114.352 25.2876 114.32 25.6156 114.256 25.8396C114.208 25.9996 114.12 26.0796 113.992 26.0796H109.072Z" fill="#B5B5B5"/>
<path d="M134.84 26.0796C134.68 26.0796 134.6 25.9996 134.6 25.8396C134.6 25.7756 134.616 25.6476 134.648 25.4556C134.696 25.2636 134.752 25.1116 134.816 24.9996C135.408 24.9676 135.816 24.8076 136.04 24.5196C136.28 24.2156 136.4 23.7356 136.4 23.0796V12.1596C136.4 11.6156 136.368 11.2316 136.304 11.0076C136.24 10.7836 136.096 10.6476 135.872 10.5996C135.664 10.5356 135.328 10.5036 134.864 10.5036C134.864 10.2956 134.88 10.1036 134.912 9.92757C134.944 9.73557 134.968 9.59957 134.984 9.51957C135.032 9.35957 135.12 9.27957 135.248 9.27957H141.056C142.704 9.29557 144.008 9.65557 144.968 10.3596C145.928 11.0476 146.408 11.9516 146.408 13.0716C146.408 13.9196 146.104 14.6876 145.496 15.3756C144.888 16.0636 144.096 16.5516 143.12 16.8396C143.856 16.9676 144.56 17.2156 145.232 17.5836C145.92 17.9516 146.48 18.4476 146.912 19.0716C147.344 19.6796 147.56 20.4236 147.56 21.3036C147.56 22.8396 146.952 24.0236 145.736 24.8556C144.52 25.6716 142.816 26.0796 140.624 26.0796H134.84ZM139.28 24.8076C139.456 24.8236 139.632 24.8396 139.808 24.8556C140 24.8556 140.176 24.8556 140.336 24.8556C141.76 24.8556 142.92 24.5756 143.816 24.0156C144.712 23.4556 145.16 22.5436 145.16 21.2796C145.16 20.0476 144.728 19.1356 143.864 18.5436C143 17.9356 141.592 17.6316 139.64 17.6316C139.432 17.6316 139.256 17.6316 139.112 17.6316C138.968 17.6316 138.84 17.6396 138.728 17.6556V23.0796C138.728 23.7836 138.76 24.2396 138.824 24.4476C138.888 24.6556 139.04 24.7756 139.28 24.8076ZM138.728 16.3836C138.84 16.3996 138.96 16.4076 139.088 16.4076C139.232 16.4076 139.4 16.4076 139.592 16.4076C140.888 16.4076 141.96 16.1596 142.808 15.6636C143.656 15.1516 144.08 14.3596 144.08 13.2876C144.08 12.3116 143.76 11.6076 143.12 11.1756C142.496 10.7276 141.664 10.5036 140.624 10.5036C140.416 10.5036 140.208 10.5116 140 10.5276C139.792 10.5436 139.576 10.5756 139.352 10.6236C139.096 10.6876 138.928 10.8476 138.848 11.1036C138.768 11.3596 138.728 11.7116 138.728 12.1596V16.3836ZM151.679 20.6796C151.743 21.9116 152.095 22.9036 152.735 23.6556C153.375 24.3916 154.295 24.7596 155.495 24.7596C156.103 24.7596 156.703 24.6396 157.295 24.3996C157.887 24.1596 158.383 23.8316 158.783 23.4156C159.119 23.7836 159.287 24.1516 159.287 24.5196C159.271 24.7596 159.103 24.9916 158.783 25.2156C158.191 25.6476 157.527 25.9596 156.791 26.1516C156.055 26.3436 155.359 26.4396 154.703 26.4396C153.727 26.4396 152.823 26.2316 151.991 25.8156C151.159 25.3836 150.487 24.7516 149.975 23.9196C149.479 23.0876 149.231 22.0476 149.231 20.7996C149.231 19.5676 149.455 18.4876 149.903 17.5596C150.367 16.6156 151.015 15.8796 151.847 15.3516C152.695 14.8236 153.695 14.5596 154.847 14.5596C155.791 14.5596 156.599 14.7516 157.271 15.1356C157.959 15.5196 158.487 16.0556 158.855 16.7436C159.239 17.4156 159.431 18.1836 159.431 19.0476C159.431 19.4956 159.335 19.8316 159.143 20.0556C158.967 20.2636 158.655 20.3836 158.207 20.4156L151.679 20.6796ZM154.655 15.9516C153.871 15.9516 153.223 16.2556 152.711 16.8636C152.199 17.4556 151.879 18.2716 151.751 19.3116L157.103 18.9996C157.151 18.0236 156.951 17.2716 156.503 16.7436C156.071 16.2156 155.455 15.9516 154.655 15.9516ZM161.111 26.0796C160.951 26.0796 160.871 25.9996 160.871 25.8396C160.871 25.7756 160.879 25.6476 160.895 25.4556C160.911 25.2476 160.951 25.0956 161.015 24.9996C161.527 24.9676 161.887 24.8396 162.095 24.6156C162.319 24.3916 162.447 24.0796 162.479 23.6796C162.511 23.3756 162.535 22.8396 162.551 22.0716C162.567 21.3036 162.583 20.4236 162.599 19.4316C162.631 18.4236 162.647 17.3996 162.647 16.3596C162.663 15.3196 162.671 14.3756 162.671 13.5276C162.671 12.9196 162.663 12.3916 162.647 11.9436C162.647 11.4796 162.639 11.1516 162.623 10.9596C162.607 10.6876 162.543 10.4716 162.431 10.3116C162.335 10.1516 162.159 10.0636 161.903 10.0476L161.111 9.99957C160.951 9.99957 160.871 9.89557 160.871 9.68757C160.871 9.46357 160.951 9.20757 161.111 8.91957C161.351 8.85557 161.679 8.79957 162.095 8.75157C162.527 8.70357 162.943 8.66357 163.343 8.63157C163.759 8.58357 164.063 8.55957 164.255 8.55957C164.575 8.55957 164.791 8.63957 164.903 8.79957C165.031 8.95957 165.079 9.23957 165.047 9.63957C165.031 9.95957 165.015 10.4556 164.999 11.1276C164.983 11.7996 164.967 12.5916 164.951 13.5036C164.935 14.3996 164.919 15.3356 164.903 16.3116C165.431 15.7836 166.031 15.3596 166.703 15.0396C167.391 14.7196 168.079 14.5596 168.767 14.5596C169.759 14.5596 170.567 14.8396 171.191 15.3996C171.831 15.9596 172.151 16.8556 172.151 18.0876V20.9916C172.151 21.7596 172.151 22.4156 172.151 22.9596C172.167 23.4876 172.191 23.8876 172.223 24.1596C172.271 24.5116 172.415 24.7196 172.655 24.7836C172.943 24.8476 173.335 24.8796 173.831 24.8796C173.831 25.2956 173.799 25.6156 173.735 25.8396C173.687 25.9996 173.599 26.0796 173.471 26.0796H168.431C168.271 26.0796 168.191 25.9996 168.191 25.8396C168.191 25.7756 168.199 25.6636 168.215 25.5036C168.231 25.3276 168.271 25.1596 168.335 24.9996C168.847 24.9676 169.207 24.8396 169.415 24.6156C169.623 24.3916 169.751 24.0796 169.799 23.6796C169.879 23.0076 169.919 22.1116 169.919 20.9916C169.919 20.6716 169.911 20.3596 169.895 20.0556C169.895 19.7516 169.887 19.4636 169.871 19.1916C169.823 18.2476 169.639 17.5516 169.319 17.1036C169.015 16.6556 168.495 16.4316 167.759 16.4316C167.247 16.4316 166.735 16.5356 166.223 16.7436C165.711 16.9356 165.263 17.2316 164.879 17.6316C164.879 18.4636 164.871 19.2716 164.855 20.0556C164.855 20.8236 164.855 21.5276 164.855 22.1676V23.9196C164.855 24.2236 164.895 24.4396 164.975 24.5676C165.071 24.6956 165.231 24.7756 165.455 24.8076C165.711 24.8396 166.023 24.8556 166.391 24.8556C166.391 25.2876 166.359 25.6156 166.295 25.8396C166.247 25.9996 166.159 26.0796 166.031 26.0796H161.111ZM175.038 26.0796C174.878 26.0796 174.798 25.9676 174.798 25.7436C174.798 25.4716 174.846 25.2236 174.942 24.9996C175.518 24.9676 175.918 24.8396 176.142 24.6156C176.382 24.3916 176.518 24.0796 176.55 23.6796C176.582 23.4076 176.598 22.9916 176.598 22.4316C176.614 21.8716 176.622 21.2796 176.622 20.6556C176.622 20.0316 176.614 19.4236 176.598 18.8316C176.598 18.2236 176.59 17.7436 176.574 17.3916C176.542 16.8156 176.302 16.5036 175.854 16.4556L175.038 16.3836C174.878 16.3836 174.798 16.2796 174.798 16.0716C174.798 15.8636 174.878 15.6156 175.038 15.3276C175.278 15.2636 175.614 15.1996 176.046 15.1356C176.494 15.0716 176.926 15.0156 177.342 14.9676C177.774 14.9196 178.086 14.8956 178.278 14.8956C178.806 14.8956 179.046 15.2156 178.998 15.8556C178.966 16.3196 178.942 16.8716 178.926 17.5116C178.91 18.1356 178.894 18.7996 178.878 19.5036C178.878 20.1916 178.878 20.8636 178.878 21.5196C178.878 21.9996 178.878 22.4636 178.878 22.9116C178.894 23.3596 178.91 23.7836 178.926 24.1836C178.942 24.3916 178.99 24.5436 179.07 24.6396C179.15 24.7196 179.238 24.7676 179.334 24.7836C179.478 24.7996 179.662 24.8156 179.886 24.8316C180.126 24.8476 180.35 24.8556 180.558 24.8556C180.558 25.2876 180.526 25.6156 180.462 25.8396C180.414 25.9996 180.302 26.0796 180.126 26.0796H175.038ZM177.582 12.7596C177.086 12.7596 176.678 12.6076 176.358 12.3036C176.038 11.9836 175.878 11.5996 175.878 11.1516C175.878 10.6716 176.038 10.2796 176.358 9.97557C176.678 9.67157 177.086 9.51957 177.582 9.51957C178.078 9.51957 178.478 9.67157 178.782 9.97557C179.086 10.2796 179.238 10.6716 179.238 11.1516C179.238 11.5996 179.086 11.9836 178.782 12.3036C178.478 12.6076 178.078 12.7596 177.582 12.7596ZM181.882 26.0796C181.722 26.0796 181.642 25.9996 181.642 25.8396C181.642 25.7276 181.65 25.5836 181.666 25.4076C181.698 25.2316 181.746 25.0956 181.81 24.9996C182.322 24.9676 182.682 24.8396 182.89 24.6156C183.114 24.3916 183.242 24.0796 183.274 23.6796C183.306 23.4076 183.322 22.9916 183.322 22.4316C183.338 21.8716 183.346 21.2796 183.346 20.6556C183.346 20.0316 183.338 19.4076 183.322 18.7836C183.322 18.1436 183.314 17.6476 183.298 17.2956C183.266 16.7196 183.026 16.4076 182.578 16.3596L181.762 16.2876C181.602 16.2876 181.522 16.1836 181.522 15.9756C181.522 15.7516 181.602 15.4956 181.762 15.2076C182.034 15.1436 182.37 15.0876 182.77 15.0396C183.17 14.9756 183.562 14.9196 183.946 14.8716C184.33 14.8236 184.618 14.7996 184.81 14.7996C185.13 14.7996 185.346 14.8796 185.458 15.0396C185.586 15.1996 185.65 15.4796 185.65 15.8796C185.65 16.0236 185.65 16.1756 185.65 16.3356C186.178 15.7916 186.786 15.3596 187.474 15.0396C188.162 14.7196 188.85 14.5596 189.538 14.5596C190.53 14.5596 191.338 14.8396 191.962 15.3996C192.602 15.9596 192.922 16.8556 192.922 18.0876V20.9916C192.922 21.7596 192.922 22.4156 192.922 22.9596C192.938 23.4876 192.962 23.8876 192.994 24.1596C193.042 24.5116 193.186 24.7196 193.426 24.7836C193.714 24.8476 194.106 24.8796 194.602 24.8796C194.602 25.2956 194.57 25.6156 194.506 25.8396C194.458 25.9996 194.37 26.0796 194.242 26.0796H189.202C189.042 26.0796 188.962 25.9996 188.962 25.8396C188.962 25.7756 188.97 25.6636 188.986 25.5036C189.002 25.3276 189.042 25.1596 189.106 24.9996C189.618 24.9676 189.978 24.8396 190.186 24.6156C190.394 24.3916 190.522 24.0796 190.57 23.6796C190.65 23.0076 190.69 22.1116 190.69 20.9916C190.69 20.6716 190.682 20.3596 190.666 20.0556C190.666 19.7516 190.658 19.4636 190.642 19.1916C190.594 18.2476 190.41 17.5516 190.09 17.1036C189.786 16.6556 189.266 16.4316 188.53 16.4316C188.018 16.4316 187.506 16.5356 186.994 16.7436C186.482 16.9516 186.026 17.2556 185.626 17.6556C185.626 18.2636 185.618 18.9036 185.602 19.5756C185.602 20.2476 185.602 20.8956 185.602 21.5196C185.602 21.9996 185.602 22.4636 185.602 22.9116C185.618 23.3596 185.634 23.7836 185.65 24.1836C185.666 24.3916 185.714 24.5436 185.794 24.6396C185.874 24.7196 185.962 24.7676 186.058 24.7836C186.346 24.8316 186.714 24.8556 187.162 24.8556C187.162 25.0156 187.154 25.1996 187.138 25.4076C187.122 25.6156 187.098 25.7596 187.066 25.8396C187.018 25.9996 186.906 26.0796 186.73 26.0796H181.882ZM202.356 9.68757C202.356 9.46357 202.436 9.20757 202.596 8.91957C202.836 8.85557 203.164 8.79957 203.58 8.75157C204.012 8.70357 204.436 8.66357 204.852 8.63157C205.268 8.58357 205.572 8.55957 205.764 8.55957C206.084 8.55957 206.3 8.63957 206.412 8.79957C206.54 8.95957 206.588 9.23957 206.556 9.63957C206.476 10.9036 206.42 12.4156 206.388 14.1756C206.372 15.9196 206.364 17.8076 206.364 19.8396V24.0396C206.364 24.3276 206.412 24.5196 206.508 24.6156C206.604 24.6956 206.748 24.7356 206.94 24.7356H207.684C207.844 24.7356 207.924 24.8156 207.924 24.9756C207.924 25.0716 207.908 25.2076 207.876 25.3836C207.844 25.5596 207.796 25.7116 207.732 25.8396C207.38 25.9676 206.956 26.0796 206.46 26.1756C205.964 26.2716 205.564 26.3196 205.26 26.3196C205.052 26.2716 204.844 26.1436 204.636 25.9356C204.428 25.7116 204.268 25.4076 204.156 25.0236C203.676 25.4716 203.124 25.8236 202.5 26.0796C201.892 26.3196 201.268 26.4396 200.628 26.4396C199.604 26.4396 198.724 26.1756 197.988 25.6476C197.252 25.1036 196.684 24.3996 196.284 23.5356C195.884 22.6556 195.684 21.7036 195.684 20.6796C195.684 19.9276 195.804 19.1916 196.044 18.4716C196.3 17.7356 196.668 17.0796 197.148 16.5036C197.644 15.9116 198.252 15.4396 198.972 15.0876C199.692 14.7356 200.524 14.5596 201.468 14.5596C202.012 14.5596 202.5 14.6236 202.932 14.7516C203.38 14.8796 203.78 15.0556 204.132 15.2796C204.132 14.4796 204.132 13.7116 204.132 12.9756C204.132 12.2396 204.124 11.5676 204.108 10.9596C204.108 10.3676 203.868 10.0636 203.388 10.0476L202.596 9.99957C202.436 9.99957 202.356 9.89557 202.356 9.68757ZM204.036 23.3196C204.068 22.7116 204.092 21.9596 204.108 21.0636C204.124 20.1516 204.132 19.1916 204.132 18.1836C203.956 17.5436 203.588 17.0156 203.028 16.5996C202.468 16.1836 201.836 15.9756 201.132 15.9756C200.156 15.9756 199.404 16.3836 198.876 17.1996C198.348 17.9996 198.084 19.0316 198.084 20.2956C198.084 21.0956 198.212 21.8316 198.468 22.5036C198.724 23.1596 199.092 23.6876 199.572 24.0876C200.068 24.4716 200.66 24.6636 201.348 24.6636C201.844 24.6636 202.332 24.5516 202.812 24.3276C203.308 24.0876 203.716 23.7516 204.036 23.3196ZM209.374 26.0796C209.214 26.0796 209.134 25.9996 209.134 25.8396C209.134 25.7276 209.142 25.5836 209.158 25.4076C209.19 25.2316 209.238 25.0956 209.302 24.9996C209.814 24.9676 210.174 24.8396 210.382 24.6156C210.606 24.3916 210.734 24.0796 210.766 23.6796C210.798 23.4076 210.814 22.9756 210.814 22.3836C210.83 21.7756 210.838 21.1596 210.838 20.5356C210.838 19.9116 210.83 19.3036 210.814 18.7116C210.814 18.1196 210.806 17.6476 210.79 17.2956C210.758 16.7196 210.518 16.4076 210.07 16.3596L209.254 16.2876C209.094 16.2876 209.014 16.1836 209.014 15.9756C209.014 15.7516 209.094 15.4956 209.254 15.2076C209.526 15.1436 209.862 15.0876 210.262 15.0396C210.662 14.9756 211.054 14.9196 211.438 14.8716C211.822 14.8236 212.11 14.7996 212.302 14.7996C212.622 14.7996 212.838 14.8796 212.95 15.0396C213.078 15.1996 213.142 15.4796 213.142 15.8796C213.142 15.9916 213.142 16.1116 213.142 16.2396C213.638 15.7116 214.206 15.3036 214.846 15.0156C215.502 14.7116 216.182 14.5596 216.886 14.5596C217.574 14.5596 218.182 14.7116 218.71 15.0156C219.238 15.3196 219.63 15.7836 219.886 16.4076C220.398 15.7996 221.014 15.3436 221.734 15.0396C222.47 14.7196 223.222 14.5596 223.99 14.5596C224.934 14.5596 225.718 14.8636 226.342 15.4716C226.966 16.0796 227.27 17.0316 227.254 18.3276C227.254 18.8716 227.246 19.3916 227.23 19.8876C227.23 20.3836 227.23 20.8396 227.23 21.2556C227.23 21.9916 227.238 22.6156 227.254 23.1276C227.27 23.6236 227.286 23.9756 227.302 24.1836C227.334 24.3916 227.382 24.5356 227.446 24.6156C227.526 24.6956 227.614 24.7516 227.71 24.7836C227.822 24.7996 227.998 24.8236 228.238 24.8556C228.494 24.8716 228.726 24.8796 228.934 24.8796C228.934 25.2956 228.902 25.6156 228.838 25.8396C228.79 25.9996 228.702 26.0796 228.574 26.0796H223.534C223.374 26.0796 223.294 25.9996 223.294 25.8396C223.294 25.7756 223.302 25.6636 223.318 25.5036C223.334 25.3276 223.374 25.1596 223.438 24.9996C223.918 24.9676 224.27 24.8396 224.494 24.6156C224.734 24.3916 224.878 24.0796 224.926 23.6796C224.958 23.4876 224.974 23.1836 224.974 22.7676C224.99 22.3356 224.998 21.8956 224.998 21.4476C224.998 20.9836 224.99 20.5356 224.974 20.1036C224.974 19.6716 224.966 19.3676 224.95 19.1916C224.886 18.2476 224.718 17.5516 224.446 17.1036C224.174 16.6556 223.662 16.4316 222.91 16.4316C222.398 16.4316 221.902 16.5196 221.422 16.6956C220.942 16.8556 220.51 17.1356 220.126 17.5356C220.142 17.6956 220.15 17.8636 220.15 18.0396C220.15 18.5836 220.142 19.1116 220.126 19.6236C220.126 20.1196 220.126 20.5996 220.126 21.0636C220.126 21.8316 220.134 22.4956 220.15 23.0556C220.166 23.5996 220.182 23.9756 220.198 24.1836C220.23 24.3916 220.278 24.5356 220.342 24.6156C220.422 24.6956 220.51 24.7516 220.606 24.7836C220.718 24.7996 220.878 24.8236 221.086 24.8556C221.294 24.8716 221.502 24.8796 221.71 24.8796C221.71 25.2956 221.678 25.6156 221.614 25.8396C221.566 25.9996 221.478 26.0796 221.35 26.0796H216.43C216.27 26.0796 216.19 25.9996 216.19 25.8396C216.19 25.7756 216.198 25.6636 216.214 25.5036C216.23 25.3276 216.27 25.1596 216.334 24.9996C216.814 24.9676 217.166 24.8396 217.39 24.6156C217.63 24.3916 217.774 24.0796 217.822 23.6796C217.854 23.4876 217.87 23.1836 217.87 22.7676C217.886 22.3356 217.894 21.8956 217.894 21.4476C217.894 20.9836 217.886 20.5356 217.87 20.1036C217.87 19.6716 217.862 19.3676 217.846 19.1916C217.782 18.2476 217.614 17.5516 217.342 17.1036C217.07 16.6556 216.558 16.4316 215.806 16.4316C214.782 16.4316 213.886 16.8076 213.118 17.5596C213.118 18.1516 213.11 18.7916 213.094 19.4796C213.094 20.1676 213.094 20.8476 213.094 21.5196C213.094 21.9996 213.094 22.4636 213.094 22.9116C213.11 23.3596 213.126 23.7836 213.142 24.1836C213.158 24.3916 213.206 24.5436 213.286 24.6396C213.366 24.7196 213.454 24.7676 213.55 24.7836C213.838 24.8316 214.206 24.8556 214.654 24.8556C214.654 25.0156 214.646 25.1996 214.63 25.4076C214.614 25.6156 214.59 25.7596 214.558 25.8396C214.51 25.9996 214.398 26.0796 214.222 26.0796H209.374ZM232.468 20.6796C232.532 21.9116 232.884 22.9036 233.524 23.6556C234.164 24.3916 235.084 24.7596 236.284 24.7596C236.892 24.7596 237.492 24.6396 238.084 24.3996C238.676 24.1596 239.172 23.8316 239.572 23.4156C239.908 23.7836 240.076 24.1516 240.076 24.5196C240.06 24.7596 239.892 24.9916 239.572 25.2156C238.98 25.6476 238.316 25.9596 237.58 26.1516C236.844 26.3436 236.148 26.4396 235.492 26.4396C234.516 26.4396 233.612 26.2316 232.78 25.8156C231.948 25.3836 231.276 24.7516 230.764 23.9196C230.268 23.0876 230.02 22.0476 230.02 20.7996C230.02 19.5676 230.244 18.4876 230.692 17.5596C231.156 16.6156 231.804 15.8796 232.636 15.3516C233.484 14.8236 234.484 14.5596 235.636 14.5596C236.58 14.5596 237.388 14.7516 238.06 15.1356C238.748 15.5196 239.276 16.0556 239.644 16.7436C240.028 17.4156 240.22 18.1836 240.22 19.0476C240.22 19.4956 240.124 19.8316 239.932 20.0556C239.756 20.2636 239.444 20.3836 238.996 20.4156L232.468 20.6796ZM235.444 15.9516C234.66 15.9516 234.012 16.2556 233.5 16.8636C232.988 17.4556 232.668 18.2716 232.54 19.3116L237.892 18.9996C237.94 18.0236 237.74 17.2716 237.292 16.7436C236.86 16.2156 236.244 15.9516 235.444 15.9516ZM242.14 26.0796C241.98 26.0796 241.9 25.9996 241.9 25.8396C241.9 25.7276 241.908 25.5836 241.924 25.4076C241.956 25.2316 242.004 25.0956 242.068 24.9996C242.58 24.9676 242.94 24.8396 243.148 24.6156C243.372 24.3916 243.5 24.0796 243.532 23.6796C243.564 23.4076 243.58 22.9756 243.58 22.3836C243.596 21.7756 243.604 21.1596 243.604 20.5356C243.604 19.9116 243.596 19.3036 243.58 18.7116C243.58 18.1196 243.572 17.6476 243.556 17.2956C243.524 16.7196 243.284 16.4076 242.836 16.3596L242.02 16.2876C241.86 16.2876 241.78 16.1836 241.78 15.9756C241.78 15.7516 241.86 15.4956 242.02 15.2076C242.292 15.1436 242.628 15.0876 243.028 15.0396C243.428 14.9756 243.82 14.9196 244.204 14.8716C244.588 14.8236 244.876 14.7996 245.068 14.7996C245.388 14.7996 245.604 14.8796 245.716 15.0396C245.844 15.1996 245.908 15.4796 245.908 15.8796C245.908 15.9916 245.908 16.1116 245.908 16.2396C246.404 15.7116 246.972 15.3036 247.612 15.0156C248.268 14.7116 248.948 14.5596 249.652 14.5596C250.34 14.5596 250.948 14.7116 251.476 15.0156C252.004 15.3196 252.396 15.7836 252.652 16.4076C253.164 15.7996 253.78 15.3436 254.5 15.0396C255.236 14.7196 255.988 14.5596 256.756 14.5596C257.7 14.5596 258.484 14.8636 259.108 15.4716C259.732 16.0796 260.036 17.0316 260.02 18.3276C260.02 18.8716 260.012 19.3916 259.996 19.8876C259.996 20.3836 259.996 20.8396 259.996 21.2556C259.996 21.9916 260.004 22.6156 260.02 23.1276C260.036 23.6236 260.052 23.9756 260.068 24.1836C260.1 24.3916 260.148 24.5356 260.212 24.6156C260.292 24.6956 260.38 24.7516 260.476 24.7836C260.588 24.7996 260.764 24.8236 261.004 24.8556C261.26 24.8716 261.492 24.8796 261.7 24.8796C261.7 25.2956 261.668 25.6156 261.604 25.8396C261.556 25.9996 261.468 26.0796 261.34 26.0796H256.3C256.14 26.0796 256.06 25.9996 256.06 25.8396C256.06 25.7756 256.068 25.6636 256.084 25.5036C256.1 25.3276 256.14 25.1596 256.204 24.9996C256.684 24.9676 257.036 24.8396 257.26 24.6156C257.5 24.3916 257.644 24.0796 257.692 23.6796C257.724 23.4876 257.74 23.1836 257.74 22.7676C257.756 22.3356 257.764 21.8956 257.764 21.4476C257.764 20.9836 257.756 20.5356 257.74 20.1036C257.74 19.6716 257.732 19.3676 257.716 19.1916C257.652 18.2476 257.484 17.5516 257.212 17.1036C256.94 16.6556 256.428 16.4316 255.676 16.4316C255.164 16.4316 254.668 16.5196 254.188 16.6956C253.708 16.8556 253.276 17.1356 252.892 17.5356C252.908 17.6956 252.916 17.8636 252.916 18.0396C252.916 18.5836 252.908 19.1116 252.892 19.6236C252.892 20.1196 252.892 20.5996 252.892 21.0636C252.892 21.8316 252.9 22.4956 252.916 23.0556C252.932 23.5996 252.948 23.9756 252.964 24.1836C252.996 24.3916 253.044 24.5356 253.108 24.6156C253.188 24.6956 253.276 24.7516 253.372 24.7836C253.484 24.7996 253.644 24.8236 253.852 24.8556C254.06 24.8716 254.268 24.8796 254.476 24.8796C254.476 25.2956 254.444 25.6156 254.38 25.8396C254.332 25.9996 254.244 26.0796 254.116 26.0796H249.196C249.036 26.0796 248.956 25.9996 248.956 25.8396C248.956 25.7756 248.964 25.6636 248.98 25.5036C248.996 25.3276 249.036 25.1596 249.1 24.9996C249.58 24.9676 249.932 24.8396 250.156 24.6156C250.396 24.3916 250.54 24.0796 250.588 23.6796C250.62 23.4876 250.636 23.1836 250.636 22.7676C250.652 22.3356 250.66 21.8956 250.66 21.4476C250.66 20.9836 250.652 20.5356 250.636 20.1036C250.636 19.6716 250.628 19.3676 250.612 19.1916C250.548 18.2476 250.38 17.5516 250.108 17.1036C249.836 16.6556 249.324 16.4316 248.572 16.4316C247.548 16.4316 246.652 16.8076 245.884 17.5596C245.884 18.1516 245.876 18.7916 245.86 19.4796C245.86 20.1676 245.86 20.8476 245.86 21.5196C245.86 21.9996 245.86 22.4636 245.86 22.9116C245.876 23.3596 245.892 23.7836 245.908 24.1836C245.924 24.3916 245.972 24.5436 246.052 24.6396C246.132 24.7196 246.22 24.7676 246.316 24.7836C246.604 24.8316 246.972 24.8556 247.42 24.8556C247.42 25.0156 247.412 25.1996 247.396 25.4076C247.38 25.6156 247.356 25.7596 247.324 25.8396C247.276 25.9996 247.164 26.0796 246.988 26.0796H242.14ZM268.257 26.4396C267.169 26.4396 266.209 26.2076 265.377 25.7436C264.561 25.2796 263.921 24.6236 263.457 23.7756C263.009 22.9116 262.785 21.9116 262.785 20.7756C262.785 19.5436 263.033 18.4636 263.529 17.5356C264.041 16.6076 264.753 15.8796 265.665 15.3516C266.577 14.8236 267.625 14.5596 268.809 14.5596C269.913 14.5596 270.873 14.7916 271.689 15.2556C272.521 15.7196 273.161 16.3756 273.609 17.2236C274.073 18.0556 274.305 19.0396 274.305 20.1756C274.321 21.3916 274.073 22.4716 273.561 23.4156C273.049 24.3596 272.337 25.1036 271.425 25.6476C270.513 26.1756 269.457 26.4396 268.257 26.4396ZM268.713 24.9756C269.721 24.9756 270.505 24.5996 271.065 23.8476C271.641 23.0956 271.929 22.0636 271.929 20.7516C271.929 19.2476 271.585 18.0876 270.897 17.2716C270.225 16.4396 269.377 16.0236 268.353 16.0236C267.377 16.0236 266.601 16.4076 266.025 17.1756C265.449 17.9276 265.161 18.9756 265.161 20.3196C265.161 21.7756 265.489 22.9196 266.145 23.7516C266.801 24.5676 267.657 24.9756 268.713 24.9756ZM276.101 26.0796C275.941 26.0796 275.861 25.9996 275.861 25.8396C275.861 25.7276 275.869 25.5836 275.885 25.4076C275.917 25.2316 275.965 25.0956 276.029 24.9996C276.541 24.9676 276.901 24.8396 277.109 24.6156C277.333 24.3916 277.461 24.0796 277.493 23.6796C277.525 23.4076 277.541 22.9756 277.541 22.3836C277.557 21.7756 277.565 21.1596 277.565 20.5356C277.565 19.9116 277.557 19.3036 277.541 18.7116C277.541 18.1196 277.533 17.6476 277.517 17.2956C277.485 16.7196 277.245 16.4076 276.797 16.3596L275.981 16.2876C275.821 16.2716 275.741 16.1676 275.741 15.9756C275.741 15.7516 275.821 15.4956 275.981 15.2076C276.253 15.1436 276.589 15.0876 276.989 15.0396C277.389 14.9756 277.781 14.9196 278.165 14.8716C278.549 14.8236 278.837 14.7996 279.029 14.7996C279.349 14.7996 279.565 14.8796 279.677 15.0396C279.805 15.1996 279.869 15.4796 279.869 15.8796C279.869 16.0876 279.869 16.3196 279.869 16.5756C280.221 15.9516 280.653 15.4636 281.165 15.1116C281.677 14.7436 282.245 14.5596 282.869 14.5596C283.237 14.5596 283.533 14.5996 283.757 14.6796C283.981 14.7596 284.173 14.8476 284.333 14.9436C284.445 15.0076 284.501 15.1036 284.501 15.2316C284.501 15.5356 284.405 15.9036 284.213 16.3356C284.037 16.7516 283.837 17.0396 283.613 17.1996C282.877 16.7836 282.237 16.5756 281.693 16.5756C281.213 16.5756 280.837 16.7356 280.565 17.0556C280.309 17.3596 280.125 17.7836 280.013 18.3276C279.901 18.8556 279.837 19.4556 279.821 20.1276C279.821 20.3356 279.821 20.5516 279.821 20.7756C279.821 20.9836 279.821 21.1916 279.821 21.3996C279.821 21.8796 279.821 22.3676 279.821 22.8636C279.837 23.3436 279.853 23.7836 279.869 24.1836C279.885 24.3916 279.933 24.5436 280.013 24.6396C280.093 24.7196 280.181 24.7676 280.277 24.7836C280.533 24.7996 280.805 24.8156 281.093 24.8316C281.397 24.8476 281.653 24.8556 281.861 24.8556C281.861 25.0156 281.853 25.1996 281.837 25.4076C281.821 25.6156 281.797 25.7596 281.765 25.8396C281.717 25.9996 281.605 26.0796 281.429 26.0796H276.101ZM287.561 30.8316C286.937 30.8316 286.241 30.6636 285.473 30.3276C285.457 30.1516 285.481 29.9276 285.545 29.6556C285.609 29.3836 285.713 29.1756 285.857 29.0316C286.033 29.0476 286.201 29.0636 286.361 29.0796C286.537 29.1116 286.697 29.1276 286.841 29.1276C287.577 29.1276 288.273 28.8556 288.929 28.3116C289.585 27.7676 290.145 27.0236 290.609 26.0796L287.057 18.2076C286.817 17.6476 286.601 17.2236 286.409 16.9356C286.233 16.6476 286.025 16.4476 285.785 16.3356C285.545 16.2236 285.193 16.1516 284.729 16.1196C284.729 15.9436 284.745 15.7596 284.777 15.5676C284.809 15.3756 284.833 15.2396 284.849 15.1596C284.897 14.9996 284.993 14.9196 285.137 14.9196H290.129C290.289 14.9196 290.369 14.9996 290.369 15.1596C290.369 15.2236 290.361 15.3356 290.345 15.4956C290.329 15.6556 290.289 15.8236 290.225 15.9996C289.841 16.0156 289.569 16.0796 289.409 16.1916C289.249 16.2876 289.169 16.4396 289.169 16.6476C289.169 16.8076 289.201 16.9996 289.265 17.2236C289.345 17.4316 289.441 17.6716 289.553 17.9436L291.737 23.1756L293.633 17.9916C293.729 17.7196 293.801 17.4796 293.849 17.2716C293.913 17.0636 293.945 16.8796 293.945 16.7196C293.945 16.4476 293.857 16.2636 293.681 16.1676C293.505 16.0716 293.233 16.0156 292.865 15.9996C292.897 15.6316 292.937 15.3516 292.985 15.1596C293.033 14.9996 293.145 14.9196 293.321 14.9196H297.209C297.369 14.9196 297.449 14.9996 297.449 15.1596C297.449 15.2716 297.433 15.4156 297.401 15.5916C297.385 15.7676 297.345 15.9036 297.281 15.9996C296.897 16.0316 296.585 16.1036 296.345 16.2156C296.121 16.3276 295.929 16.5196 295.769 16.7916C295.609 17.0476 295.425 17.4316 295.217 17.9436L292.001 26.0796C291.505 27.5836 290.897 28.7516 290.177 29.5836C289.473 30.4156 288.601 30.8316 287.561 30.8316ZM300.468 27.3996C299.972 27.3996 299.564 27.2396 299.244 26.9196C298.924 26.5996 298.764 26.1916 298.764 25.6956C298.764 25.2316 298.924 24.8396 299.244 24.5196C299.564 24.1996 299.972 24.0396 300.468 24.0396C300.948 24.0396 301.34 24.1996 301.644 24.5196C301.964 24.8396 302.124 25.2316 302.124 25.6956C302.124 26.1916 301.964 26.5996 301.644 26.9196C301.34 27.2396 300.948 27.3996 300.468 27.3996ZM310.447 26.4396C309.439 26.4396 308.511 26.2396 307.663 25.8396C306.815 25.4396 306.135 24.8236 305.623 23.9916C305.127 23.1596 304.879 22.1036 304.879 20.8236C304.879 19.6236 305.119 18.5516 305.599 17.6076C306.095 16.6636 306.799 15.9196 307.711 15.3756C308.639 14.8316 309.743 14.5596 311.023 14.5596C311.887 14.5596 312.591 14.6796 313.135 14.9196C313.695 15.1596 314.103 15.4236 314.359 15.7116C314.631 15.9836 314.767 16.1836 314.767 16.3116C314.767 16.4716 314.679 16.6556 314.503 16.8636C314.343 17.0556 314.135 17.2316 313.879 17.3916C313.623 17.5516 313.359 17.6636 313.087 17.7276C312.863 17.0236 312.503 16.5516 312.007 16.3116C311.511 16.0716 310.991 15.9516 310.447 15.9516C309.759 15.9516 309.175 16.1596 308.695 16.5756C308.231 16.9756 307.879 17.5036 307.639 18.1596C307.415 18.8156 307.303 19.5036 307.303 20.2236C307.303 20.9756 307.431 21.7036 307.687 22.4076C307.959 23.1116 308.359 23.6876 308.887 24.1356C309.415 24.5836 310.071 24.8076 310.855 24.8076C311.527 24.8076 312.191 24.6716 312.847 24.3996C313.503 24.1116 314.031 23.7596 314.431 23.3436C314.591 23.5036 314.735 23.6876 314.863 23.8956C315.007 24.1036 315.079 24.2876 315.079 24.4476C315.079 24.6876 314.919 24.9196 314.599 25.1436C313.959 25.5916 313.271 25.9196 312.535 26.1276C311.799 26.3356 311.103 26.4396 310.447 26.4396ZM322 26.4396C320.912 26.4396 319.952 26.2076 319.12 25.7436C318.304 25.2796 317.664 24.6236 317.2 23.7756C316.752 22.9116 316.528 21.9116 316.528 20.7756C316.528 19.5436 316.775 18.4636 317.271 17.5356C317.784 16.6076 318.496 15.8796 319.408 15.3516C320.32 14.8236 321.368 14.5596 322.552 14.5596C323.656 14.5596 324.616 14.7916 325.432 15.2556C326.264 15.7196 326.904 16.3756 327.352 17.2236C327.816 18.0556 328.048 19.0396 328.048 20.1756C328.064 21.3916 327.816 22.4716 327.304 23.4156C326.792 24.3596 326.08 25.1036 325.168 25.6476C324.256 26.1756 323.2 26.4396 322 26.4396ZM322.456 24.9756C323.464 24.9756 324.248 24.5996 324.808 23.8476C325.384 23.0956 325.672 22.0636 325.672 20.7516C325.672 19.2476 325.328 18.0876 324.64 17.2716C323.968 16.4396 323.12 16.0236 322.096 16.0236C321.12 16.0236 320.344 16.4076 319.768 17.1756C319.192 17.9276 318.904 18.9756 318.904 20.3196C318.904 21.7756 319.232 22.9196 319.888 23.7516C320.544 24.5676 321.4 24.9756 322.456 24.9756ZM329.843 26.0796C329.683 26.0796 329.603 25.9996 329.603 25.8396C329.603 25.7276 329.611 25.5836 329.627 25.4076C329.659 25.2316 329.707 25.0956 329.771 24.9996C330.283 24.9676 330.643 24.8396 330.851 24.6156C331.075 24.3916 331.203 24.0796 331.235 23.6796C331.267 23.4076 331.283 22.9756 331.283 22.3836C331.299 21.7756 331.307 21.1596 331.307 20.5356C331.307 19.9116 331.299 19.3036 331.283 18.7116C331.283 18.1196 331.275 17.6476 331.259 17.2956C331.227 16.7196 330.987 16.4076 330.539 16.3596L329.723 16.2876C329.563 16.2876 329.483 16.1836 329.483 15.9756C329.483 15.7516 329.563 15.4956 329.723 15.2076C329.995 15.1436 330.331 15.0876 330.731 15.0396C331.131 14.9756 331.523 14.9196 331.907 14.8716C332.291 14.8236 332.579 14.7996 332.771 14.7996C333.091 14.7996 333.307 14.8796 333.419 15.0396C333.547 15.1996 333.611 15.4796 333.611 15.8796C333.611 15.9916 333.611 16.1116 333.611 16.2396C334.107 15.7116 334.675 15.3036 335.315 15.0156C335.971 14.7116 336.651 14.5596 337.355 14.5596C338.043 14.5596 338.651 14.7116 339.179 15.0156C339.707 15.3196 340.099 15.7836 340.355 16.4076C340.867 15.7996 341.483 15.3436 342.203 15.0396C342.939 14.7196 343.691 14.5596 344.459 14.5596C345.403 14.5596 346.187 14.8636 346.811 15.4716C347.435 16.0796 347.739 17.0316 347.723 18.3276C347.723 18.8716 347.715 19.3916 347.699 19.8876C347.699 20.3836 347.699 20.8396 347.699 21.2556C347.699 21.9916 347.707 22.6156 347.723 23.1276C347.739 23.6236 347.755 23.9756 347.771 24.1836C347.803 24.3916 347.851 24.5356 347.915 24.6156C347.995 24.6956 348.083 24.7516 348.179 24.7836C348.291 24.7996 348.467 24.8236 348.707 24.8556C348.963 24.8716 349.195 24.8796 349.403 24.8796C349.403 25.2956 349.371 25.6156 349.307 25.8396C349.259 25.9996 349.171 26.0796 349.043 26.0796H344.003C343.843 26.0796 343.763 25.9996 343.763 25.8396C343.763 25.7756 343.771 25.6636 343.787 25.5036C343.803 25.3276 343.843 25.1596 343.907 24.9996C344.387 24.9676 344.739 24.8396 344.963 24.6156C345.203 24.3916 345.347 24.0796 345.395 23.6796C345.427 23.4876 345.443 23.1836 345.443 22.7676C345.459 22.3356 345.467 21.8956 345.467 21.4476C345.467 20.9836 345.459 20.5356 345.443 20.1036C345.443 19.6716 345.435 19.3676 345.419 19.1916C345.355 18.2476 345.187 17.5516 344.915 17.1036C344.643 16.6556 344.131 16.4316 343.379 16.4316C342.867 16.4316 342.371 16.5196 341.891 16.6956C341.411 16.8556 340.979 17.1356 340.595 17.5356C340.611 17.6956 340.619 17.8636 340.619 18.0396C340.619 18.5836 340.611 19.1116 340.595 19.6236C340.595 20.1196 340.595 20.5996 340.595 21.0636C340.595 21.8316 340.603 22.4956 340.619 23.0556C340.635 23.5996 340.651 23.9756 340.667 24.1836C340.699 24.3916 340.747 24.5356 340.811 24.6156C340.891 24.6956 340.979 24.7516 341.075 24.7836C341.187 24.7996 341.347 24.8236 341.555 24.8556C341.763 24.8716 341.971 24.8796 342.179 24.8796C342.179 25.2956 342.147 25.6156 342.083 25.8396C342.035 25.9996 341.947 26.0796 341.819 26.0796H336.899C336.739 26.0796 336.659 25.9996 336.659 25.8396C336.659 25.7756 336.667 25.6636 336.683 25.5036C336.699 25.3276 336.739 25.1596 336.803 24.9996C337.283 24.9676 337.635 24.8396 337.859 24.6156C338.099 24.3916 338.243 24.0796 338.291 23.6796C338.323 23.4876 338.339 23.1836 338.339 22.7676C338.355 22.3356 338.363 21.8956 338.363 21.4476C338.363 20.9836 338.355 20.5356 338.339 20.1036C338.339 19.6716 338.331 19.3676 338.315 19.1916C338.251 18.2476 338.083 17.5516 337.811 17.1036C337.539 16.6556 337.027 16.4316 336.275 16.4316C335.251 16.4316 334.355 16.8076 333.587 17.5596C333.587 18.1516 333.579 18.7916 333.563 19.4796C333.563 20.1676 333.563 20.8476 333.563 21.5196C333.563 21.9996 333.563 22.4636 333.563 22.9116C333.579 23.3596 333.595 23.7836 333.611 24.1836C333.627 24.3916 333.675 24.5436 333.755 24.6396C333.835 24.7196 333.923 24.7676 334.019 24.7836C334.307 24.8316 334.675 24.8556 335.123 24.8556C335.123 25.0156 335.115 25.1996 335.099 25.4076C335.083 25.6156 335.059 25.7596 335.027 25.8396C334.979 25.9996 334.867 26.0796 334.691 26.0796H329.843Z" fill="#F2EDDC"/>
</svg>
